<svg width="124" height="34" viewBox="0 0 124 34" fill="none" xmlns="http://www.w3.org/2000/svg">
<path fill-rule="evenodd" clip-rule="evenodd" d="M63.9335 6.79881C63.9335 8.2042 62.7829 9.33634 61.3547 9.33634C59.9264 9.33634 58.7759 8.2042 58.7759 6.79881C58.7759 5.3934 59.8868 4.26126 61.3547 4.26126C62.8226 4.3003 63.9335 5.43243 63.9335 6.79881ZM53.3008 11.9129C53.3008 12.1472 53.3008 12.5376 53.3008 12.5376C53.3008 12.5376 52.071 10.9759 49.4524 10.9759C45.128 10.9759 41.7556 14.2163 41.7556 18.7057C41.7556 23.1562 45.0883 26.4354 49.4524 26.4354C52.1106 26.4354 53.3008 24.8349 53.3008 24.8349V25.4986C53.3008 25.8108 53.5389 26.0451 53.8562 26.0451H57.0699V11.3663C57.0699 11.3663 54.134 11.3663 53.8562 11.3663C53.5389 11.3663 53.3008 11.6396 53.3008 11.9129ZM53.3008 21.3214C52.7057 22.1802 51.5155 22.9219 50.0873 22.9219C47.5481 22.9219 45.604 21.3604 45.604 18.7057C45.604 16.0511 47.5481 14.4895 50.0873 14.4895C51.4757 14.4895 52.7453 15.2702 53.3008 16.0901V21.3214ZM59.4502 11.3663H63.259V26.0451H59.4502V11.3663ZM116.343 10.9759C113.724 10.9759 112.494 12.5376 112.494 12.5376V4.3003H108.686V26.0451C108.686 26.0451 111.622 26.0451 111.899 26.0451C112.217 26.0451 112.455 25.7718 112.455 25.4986V24.8349C112.455 24.8349 113.685 26.4354 116.303 26.4354C120.628 26.4354 124 23.1562 124 18.7057C124 14.2553 120.628 10.9759 116.343 10.9759ZM115.708 22.8829C114.24 22.8829 113.09 22.1411 112.494 21.2822V16.0511C113.09 15.2702 114.359 14.4504 115.708 14.4504C118.247 14.4504 120.191 16.0119 120.191 18.6667C120.191 21.3214 118.247 22.8829 115.708 22.8829ZM106.702 17.3393V26.0841H102.893V17.7688C102.893 15.3484 102.1 14.3724 99.9575 14.3724C98.807 14.3724 97.6168 14.958 96.8629 15.8168V26.0451H93.0543V11.3663H96.0695C96.3868 11.3663 96.6249 11.6396 96.6249 11.9129V12.5376C97.7357 11.4053 99.2037 10.9759 100.672 10.9759C102.338 10.9759 103.727 11.4445 104.837 12.3813C106.186 13.4744 106.702 14.8798 106.702 17.3393ZM83.8102 10.9759C81.1917 10.9759 79.9618 12.5376 79.9618 12.5376V4.3003H76.1531V26.0451C76.1531 26.0451 79.0889 26.0451 79.3666 26.0451C79.6841 26.0451 79.9221 25.7718 79.9221 25.4986V24.8349C79.9221 24.8349 81.152 26.4354 83.7704 26.4354C88.095 26.4354 91.4672 23.1562 91.4672 18.7057C91.507 14.2553 88.1346 10.9759 83.8102 10.9759ZM83.1754 22.8829C81.7075 22.8829 80.5569 22.1411 79.9618 21.2822V16.0511C80.5569 15.2702 81.8265 14.4504 83.1754 14.4504C85.7145 14.4504 87.6586 16.0119 87.6586 18.6667C87.6586 21.3214 85.7145 22.8829 83.1754 22.8829ZM72.8602 10.9759C74.0107 10.9759 74.6058 11.1712 74.6058 11.1712V14.6457C74.6058 14.6457 71.4319 13.5916 69.4482 15.8168V26.0841H65.6395V11.3663C65.6395 11.3663 68.5754 11.3663 68.8531 11.3663C69.1705 11.3663 69.4084 11.6396 69.4084 11.9129V12.5376C70.1226 11.7178 71.6699 10.9759 72.8602 10.9759ZM31.5478 24.1642C31.3754 23.7558 31.203 23.3133 31.0307 22.9389C30.7548 22.3263 30.479 21.7477 30.2377 21.2033L30.2033 21.1691C27.8245 16.064 25.2733 10.8909 22.5842 5.78578L22.4807 5.58159C22.2049 5.07108 21.9292 4.52653 21.6534 3.98198C21.3086 3.36936 20.9638 2.72272 20.4123 2.11011C19.3091 0.748749 17.7232 0 16.0338 0C14.3101 0 12.7588 0.748749 11.621 2.04204C11.1039 2.65466 10.7247 3.3013 10.3799 3.91391C10.1041 4.45846 9.82833 5.003 9.55253 5.51351L9.44911 5.71772C6.79451 10.8228 4.20886 15.996 1.83007 21.1011L1.79559 21.1691C1.55426 21.7137 1.27846 22.2923 1.00266 22.9049C0.83028 23.2793 0.657904 23.6877 0.485527 24.1302C0.0373483 25.3894 -0.100553 26.5806 0.0718235 27.8058C0.451051 30.3584 2.17482 32.5025 4.55361 33.4555C5.44997 33.8299 6.38081 34 7.34612 34C7.62192 34 7.96667 33.966 8.24247 33.9319C9.38015 33.7958 10.5523 33.4214 11.69 32.7748C13.1035 31.9919 14.448 30.8688 15.965 29.2353C17.4818 30.8688 18.8608 31.9919 20.2398 32.7748C21.3776 33.4214 22.5497 33.7958 23.6874 33.9319C23.9632 33.966 24.3079 34 24.5837 34C25.549 34 26.5144 33.8299 27.3763 33.4555C29.7896 32.5025 31.4788 30.3244 31.858 27.8058C32.1338 26.6146 31.9959 25.4234 31.5478 24.1642ZM16.0314 25.5766C14.2431 23.3304 13.084 21.2162 12.6867 19.4324C12.521 18.6727 12.4879 18.012 12.5873 17.4174C12.6536 16.8889 12.8522 16.4264 13.1172 16.0301C13.7464 15.1382 14.8061 14.5766 16.0314 14.5766C17.2567 14.5766 18.3496 15.1052 18.9457 16.0301C19.2106 16.4264 19.4092 16.8889 19.4755 17.4174C19.5749 18.012 19.5418 18.7057 19.3761 19.4324C18.9788 21.1831 17.8197 23.2972 16.0314 25.5766ZM29.4719 27.2869C29.236 29.0162 28.0564 30.5129 26.4047 31.178C25.5957 31.5105 24.7194 31.6103 23.8431 31.5105C23.0004 31.4109 22.1578 31.1447 21.2814 30.6459C20.0679 29.9807 18.8545 28.9498 17.4389 27.4199C19.6635 24.726 21.0117 22.2649 21.5173 20.07C21.7532 19.039 21.787 18.1078 21.6859 17.2431C21.5511 16.4117 21.2476 15.6468 20.7757 14.9816C19.7309 13.485 17.9782 12.6203 16.0232 12.6203C14.0683 12.6203 12.3155 13.5183 11.2707 14.9816C10.7988 15.6468 10.4954 16.4117 10.3606 17.2431C10.2258 18.1078 10.2595 19.0723 10.5291 20.07C11.0347 22.2649 12.4167 24.7593 14.6075 27.4531C13.2256 28.983 11.9785 30.014 10.7651 30.6791C9.88872 31.178 9.04606 31.4441 8.20342 31.5439C7.29334 31.6435 6.41699 31.5105 5.64175 31.2113C3.99015 30.5461 2.81044 29.0496 2.57449 27.3201C2.47338 26.4887 2.54078 25.6573 2.87784 24.726C2.97897 24.3934 3.14749 24.0609 3.31602 23.6618C3.55197 23.1297 3.82161 22.5643 4.09127 21.9989L4.12497 21.9325C6.4507 16.9771 8.94495 11.9219 11.5403 6.99982L11.6414 6.80027C11.9111 6.30141 12.1807 5.76929 12.4503 5.27043C12.7201 4.73831 13.0234 4.23945 13.3941 3.80711C14.102 3.00892 15.0458 2.57658 16.0907 2.57658C17.1355 2.57658 18.0793 3.00892 18.7871 3.80711C19.1579 4.23945 19.4612 4.73831 19.7309 5.27043C20.0006 5.76929 20.2702 6.30141 20.5398 6.80027L20.6409 6.99982C23.2026 11.9552 25.6969 17.0103 28.0226 21.9657V21.9989C28.2922 22.5311 28.5281 23.1297 28.7979 23.6618C28.9664 24.0609 29.1348 24.3934 29.236 24.726C29.5057 25.5907 29.6067 26.4221 29.4719 27.2869Z" fill="#6B7280"/>
</svg>
