<svg width="128" height="38" viewBox="0 0 128 38" fill="none" xmlns="http://www.w3.org/2000/svg">
<path fill-rule="evenodd" clip-rule="evenodd" d="M76.0909 29.2474C75.2413 29.8999 74.3275 30.4877 73.4138 31.0102V28.269C73.9351 28.0731 74.5235 27.8119 75.0459 27.6166C76.2203 27.0941 77.2676 28.4003 76.0896 29.2474H76.0909ZM82.2915 24.6771C82.2915 24.1546 82.1609 23.7628 82.0303 23.5674C81.4431 22.8491 77.1346 22.196 73.4138 23.3056V25.3289C75.6984 25.1336 78.3742 25.0677 79.0291 25.9149C79.9428 27.0245 77.9842 31.8549 77.1352 33.9435C76.874 34.5966 77.4648 34.8591 78.0507 34.4013C80.9878 31.9208 82.228 27.4164 82.2933 25.0659V24.6783L82.2915 24.6771ZM73.4138 31.0095C66.5595 35.1221 57.6813 37.2767 49.9785 37.2767C37.5755 37.2767 26.4779 32.7076 18.0568 25.0695C17.3391 24.4824 17.9262 23.6334 18.7752 24.0905C27.8494 29.3762 39.0757 32.5745 50.6969 32.5763C58.0084 32.5763 65.9071 31.2061 73.4145 28.2678V31.0095H73.4138ZM73.4138 23.3038C72.4131 23.6141 71.4661 24.0767 70.6062 24.6752C69.9543 25.1318 70.0843 25.719 70.7344 25.6543C71.4528 25.5236 72.3665 25.4583 73.4114 25.3277V23.3068L73.4138 23.3038Z" fill="#4B5563"/>
<path fill-rule="evenodd" clip-rule="evenodd" d="M125.554 5.09538V4.76945C125.768 4.77149 125.982 4.73066 126.18 4.64935C126.379 4.56805 126.56 4.4479 126.712 4.29593C126.864 4.14396 126.984 3.96322 127.065 3.76429C127.146 3.56535 127.187 3.35222 127.185 3.13735C127.185 2.22304 126.402 1.50526 125.554 1.50526V1.17933C126.597 1.17933 127.513 2.02772 127.513 3.13735C127.512 4.18229 126.598 5.09782 125.555 5.09782L125.554 5.09538ZM125.554 3.33267H125.618C125.749 3.33267 125.814 3.39981 125.814 3.52859C125.814 3.59573 125.881 4.11454 125.942 4.24698H126.398C126.317 4.0614 126.273 3.86176 126.268 3.65921C126.203 3.39798 126.203 3.20205 125.876 3.13735C126.072 3.07266 126.332 3.00674 126.332 2.6155C126.332 2.02772 125.811 2.02772 125.55 2.02772V2.35427C125.681 2.35427 125.873 2.35427 125.873 2.68081C125.873 2.81142 125.808 3.00735 125.547 3.00735V3.33267H125.554ZM125.554 1.17872V1.50465C124.64 1.50465 123.856 2.22243 123.856 3.13674C123.856 4.05228 124.637 4.7664 125.553 4.76884V5.09477C124.443 5.09477 123.53 4.24637 123.53 3.13674C123.53 2.02711 124.443 1.17933 125.555 1.17872H125.554ZM125.554 2.02711H124.77V4.24698H125.227V3.33267H125.554V3.00674H125.227V2.35427H125.554V2.02711ZM95.4196 22.2635V18.3469C98.2278 18.2815 98.3578 14.2343 98.3578 11.8191C98.3578 10.187 98.2925 8.22835 97.7701 6.66156C97.3788 5.356 96.5957 4.83354 95.419 4.76884V0.851565C100.903 0.918705 103.909 5.6856 103.909 11.7526C103.908 17.6285 100.579 22.2 95.4214 22.2635H95.4196ZM111.153 21.8723H107.432C107.04 21.807 106.714 21.5457 106.714 21.1539V1.8965C106.779 1.50465 107.04 1.24403 107.432 1.24403H110.957C111.283 1.24403 111.543 1.50648 111.611 1.83119V4.76884H111.676C112.72 2.09242 114.222 0.851565 116.832 0.851565C118.464 0.851565 120.159 1.43751 121.208 3.13674C122.187 4.70536 122.185 7.25055 122.185 9.14266V21.2192C122.121 21.5451 121.859 21.8717 121.467 21.8717H117.681C117.355 21.8064 117.029 21.5451 117.029 21.2192V10.8401C117.029 8.6855 117.29 5.61785 114.678 5.61785C113.764 5.61785 112.915 6.20501 112.459 7.18402C111.937 8.35896 111.871 9.53451 111.871 10.8395V21.1533C111.871 21.547 111.547 21.8704 111.15 21.8723H111.153ZM70.9412 4.63822V1.8965C70.9412 1.50465 71.2677 1.17872 71.6596 1.17872H83.9973C84.3892 1.17872 84.7176 1.50221 84.7176 1.8965V4.24698C84.7176 4.63822 84.3916 5.16069 83.8038 6.0097L77.4036 15.148C79.7541 15.0833 82.2987 15.4776 84.4533 16.6501C84.9098 16.9735 85.0392 17.3703 85.1064 17.7591V20.6314C85.1064 21.0227 84.6498 21.4804 84.1926 21.2839C80.3407 19.2606 75.315 19.064 71.1365 21.2839C70.6799 21.5451 70.2228 21.022 70.2228 20.6314V17.8897C70.2228 17.4978 70.2228 16.7141 70.6799 15.9964L78.1214 5.35539H71.659C71.2677 5.35417 70.9399 5.09782 70.9399 4.63822H70.9412ZM95.4196 0.851565V4.76884C92.6138 4.76884 92.4825 8.55489 92.4825 10.9054C92.4825 13.3206 92.4178 18.3456 95.3573 18.3469H95.4184V22.2635H95.3543C89.8708 22.2635 86.8685 17.4978 86.8685 11.5578C86.8685 5.55193 89.9355 0.851565 95.3543 0.851565C95.4196 0.849734 95.4214 0.849734 95.4214 0.851565H95.4196ZM58.2768 21.8064V18.3469C59.1252 18.1509 59.8436 17.5632 60.3655 16.6501C61.0839 15.3439 61.0839 14.1696 61.0839 12.6681V11.885C60.1049 11.885 59.1252 11.9497 58.2768 12.1462V9.14327C59.2559 9.01204 60.2349 8.94735 61.0839 8.88204V8.35957C61.0839 7.44587 61.1486 6.40155 60.6267 5.61846C60.1696 4.96537 59.2559 4.63883 58.4728 4.63883H58.2768V0.656861H59.0581C60.8855 0.656861 63.233 1.18177 64.6734 2.55019C66.5008 4.24698 66.3702 6.52972 66.3702 9.01204V14.888C66.3702 16.6519 67.0904 17.4331 67.7435 18.3487C68.0053 18.6722 68.0731 19.0689 67.7435 19.3277C67.0257 19.9808 65.6542 21.1557 64.8712 21.8082C64.6099 22.0041 64.284 22.0041 63.9581 21.8753C62.7172 20.831 62.5213 20.3739 61.8041 19.3948C60.562 20.6986 59.514 21.4127 58.275 21.8064H58.2768ZM58.2768 0.65625V4.63822C56.9054 4.76884 55.7964 5.48723 55.4692 6.9234C55.4045 7.24994 55.1427 7.57587 54.8167 7.64179L51.1607 7.18463C50.8341 7.11933 50.5082 6.9234 50.6388 6.40094C51.4225 2.29018 54.8814 0.849733 58.275 0.65625H58.2768ZM58.2768 9.14266V12.1456C56.7101 12.6022 55.4692 13.5812 55.4692 15.6674C55.4692 17.297 56.3176 18.4079 57.7519 18.4091C57.9479 18.4091 58.0791 18.3444 58.2744 18.3444V21.8039C57.3994 22.0246 56.5004 22.1353 55.598 22.1335C52.4644 22.1335 49.9839 20.1755 49.9839 16.3229C49.9839 13.2553 51.616 11.166 53.9659 10.187C55.2092 9.59616 56.7735 9.33981 58.275 9.14266H58.2768ZM8.92514 21.8064V18.3469C9.77475 18.1509 10.5578 17.5632 11.015 16.6501C11.7975 15.3439 11.7328 14.1696 11.7328 12.6681V11.885C10.7538 11.885 9.77475 11.9497 8.92514 12.1462V9.14327C9.90476 9.01204 10.8838 8.94735 11.7328 8.88204V8.35957C11.7328 7.44587 11.7975 6.40155 11.2762 5.61846C10.8191 4.96537 9.97007 4.63883 9.18698 4.63883H8.92514V0.656861H9.70639C11.5344 0.656861 13.8812 1.18177 15.3827 2.54897C17.2107 4.24576 17.0124 6.5285 17.0124 9.01083V14.8867C17.0124 16.6507 17.7326 17.4319 18.4467 18.3462C18.642 18.6697 18.7092 19.064 18.3814 19.3228C17.6636 19.9759 16.2934 21.1508 15.5091 21.8033C15.2478 21.9992 14.9213 21.9992 14.5954 21.8686C13.3551 20.8243 13.1592 20.3671 12.4414 19.3881C11.2109 20.6986 10.1666 21.4127 8.92758 21.8064H8.92514ZM25.8333 21.8723H22.0472C21.6554 21.807 21.3941 21.5457 21.3941 21.2198V1.9618C21.3941 1.56996 21.7213 1.24403 22.1131 1.24403H25.572C25.9639 1.24403 26.2923 1.56751 26.2923 1.8965V4.4423H26.3576C27.2719 1.96181 28.9687 0.851565 31.3198 0.851565C33.669 0.851565 35.1711 1.96242 36.2148 4.4423C37.1286 1.96181 39.1519 0.851565 41.3718 0.851565C43.0039 0.851565 44.7043 1.50465 45.748 2.93899C46.923 4.56864 46.7246 6.91852 46.7246 9.0096V21.1521C46.7246 21.5439 46.3981 21.8704 45.9415 21.8704H42.2202C41.8283 21.8051 41.5671 21.5439 41.5671 21.1521V10.9701C41.5671 10.187 41.6324 8.09773 41.4365 7.37995C41.1752 6.07378 40.3268 5.68255 39.2172 5.68255C38.3029 5.68255 37.3892 6.26971 36.9973 7.25116C36.6061 8.23018 36.6061 9.86227 36.6061 10.9719V21.1557C36.6061 21.5476 36.2789 21.8741 35.8877 21.8741H32.101C31.7751 21.8088 31.4486 21.5476 31.4486 21.1557V10.9701C31.4486 8.81612 31.7751 5.61724 29.164 5.61724C26.4229 5.61724 26.5523 8.75081 26.5523 10.9701V21.1539C26.5502 21.3437 26.4739 21.5251 26.3398 21.6594C26.2056 21.7936 26.0243 21.8701 25.8345 21.8723H25.8333ZM8.92514 0.65625V4.63822C7.62019 4.76884 6.44525 5.48723 6.11871 6.9234C6.0534 7.24994 5.85748 7.57587 5.46563 7.64179L1.81019 7.18463C1.54957 7.11933 1.15772 6.9234 1.28834 6.40094C2.07143 2.29018 5.59502 0.849733 8.92758 0.65625H8.92514ZM8.92514 9.14266V12.1456C7.35896 12.6022 6.11871 13.5812 6.11871 15.6698C6.11871 17.2995 6.96711 18.4103 8.40145 18.4116C8.59676 18.4116 8.79269 18.3469 8.92269 18.3469V21.8064C8.04807 22.0275 7.14902 22.1372 6.24688 22.1329C3.11331 22.1329 0.632812 20.1749 0.632812 16.3223C0.632812 13.2546 2.26491 11.1654 4.6801 10.1864C5.92278 9.59616 7.4261 9.33981 8.92758 9.14266H8.92514Z" fill="#4B5563"/>
</svg>
