<svg width="41" height="50" viewBox="0 0 41 50" fill="none" xmlns="http://www.w3.org/2000/svg">
<path d="M38.9335 17.156C38.6485 17.3771 33.6172 20.2122 33.6172 26.5161C33.6172 33.8076 40.0193 36.3871 40.2109 36.451C40.1815 36.6082 39.1939 39.9837 36.8354 43.4231C34.7325 46.4497 32.5362 49.4715 29.1951 49.4715C25.854 49.4715 24.9941 47.5307 21.1371 47.5307C17.3784 47.5307 16.0419 49.5354 12.9858 49.5354C9.92965 49.5354 7.79723 46.7347 5.34544 43.2953C2.5055 39.2565 0.210938 32.9821 0.210938 27.0271C0.210938 17.4754 6.42148 12.4097 12.5337 12.4097C15.7815 12.4097 18.4888 14.5421 20.5279 14.5421C22.4686 14.5421 25.4953 12.2819 29.1902 12.2819C30.5905 12.2819 35.6218 12.4097 38.9335 17.156ZM27.4361 8.23821C28.9642 6.42517 30.0451 3.90951 30.0451 1.39384C30.0451 1.04499 30.0156 0.691227 29.9518 0.40625C27.4656 0.499605 24.5077 2.06207 22.7241 4.13061C21.3238 5.72255 20.0169 8.23821 20.0169 10.7883C20.0169 11.1715 20.0807 11.5548 20.1102 11.6776C20.2674 11.7071 20.5229 11.7415 20.7784 11.7415C23.0091 11.7415 25.8147 10.2478 27.4361 8.23821Z" fill="#4B5563"/>
</svg>
