<svg width="14" height="9" viewBox="0 0 14 9" fill="none" xmlns="http://www.w3.org/2000/svg">
<path d="M1 5C0.723858 5 0.5 4.77614 0.5 4.5C0.5 4.22386 0.723858 4 1 4L1 5ZM13.3536 4.14645C13.5488 4.34171 13.5488 4.65829 13.3536 4.85355L10.1716 8.03553C9.97631 8.2308 9.65973 8.2308 9.46447 8.03553C9.2692 7.84027 9.2692 7.52369 9.46447 7.32843L12.2929 4.5L9.46447 1.67157C9.2692 1.47631 9.2692 1.15973 9.46447 0.964467C9.65973 0.769205 9.97631 0.769205 10.1716 0.964467L13.3536 4.14645ZM1 4L13 4L13 5L1 5L1 4Z" fill="black"/>
</svg>
