<svg width="218" height="62" viewBox="0 0 218 62" fill="none" xmlns="http://www.w3.org/2000/svg">
<rect width="218" height="62" rx="31" fill="#1A1A1A"/>
<path d="M62.9258 30.2295L66.2656 26.8896L50.624 17.8721L62.9258 30.2295ZM47.4512 17.1484C46.7275 17.5381 46.2266 18.2617 46.2266 19.1523V43.7002C46.2266 44.5908 46.7275 45.3145 47.4512 45.6484L61.7012 31.3984L47.4512 17.1484ZM71.1084 29.7285L67.8242 27.8359L64.1504 31.3984L67.8242 35.0166L71.1641 33.124C72.166 32.3447 72.166 30.5078 71.1084 29.7285ZM50.624 44.9248L66.2656 35.9629L62.9258 32.623L50.624 44.9248Z" fill="white"/>
<path d="M90.3679 23.5C92.8999 23.5 94.1479 22.024 94.1479 19.48C94.1479 16.936 92.8999 15.46 90.3679 15.46H87.7159V23.5H90.3679ZM90.2599 16.156C92.2519 16.156 93.3439 17.152 93.3439 19.48C93.3439 21.808 92.2519 22.804 90.2599 22.804H88.5079V16.156H90.2599ZM97.9506 23.62C99.5346 23.62 100.651 22.444 100.651 20.62C100.651 18.796 99.5346 17.62 97.9506 17.62C96.3666 17.62 95.2626 18.796 95.2626 20.62C95.2626 22.444 96.3666 23.62 97.9506 23.62ZM97.9506 22.948C96.8226 22.948 96.0546 22.144 96.0546 20.62C96.0546 19.084 96.8226 18.268 97.9506 18.268C99.0906 18.268 99.8586 19.084 99.8586 20.62C99.8586 22.144 99.0906 22.948 97.9506 22.948ZM103.743 23.5L104.967 19.66L105.303 18.4L105.627 19.66L106.851 23.5H107.871L109.443 17.74H108.555L107.619 21.628L107.355 22.912L107.007 21.628L105.783 17.74H104.811L103.587 21.628L103.239 22.912L102.975 21.628L102.027 17.74H101.151L102.723 23.5H103.743ZM111.052 23.5V20.164C111.052 19.168 111.544 18.28 112.756 18.28C113.752 18.28 114.184 18.856 114.184 19.792V23.5H114.976V19.612C114.976 18.292 114.208 17.62 113.068 17.62C111.916 17.62 111.256 18.412 111.052 19.348V17.74H110.26V23.5H111.052ZM117.403 23.5V15.46H116.611V23.5H117.403ZM121.388 23.62C122.972 23.62 124.088 22.444 124.088 20.62C124.088 18.796 122.972 17.62 121.388 17.62C119.804 17.62 118.7 18.796 118.7 20.62C118.7 22.444 119.804 23.62 121.388 23.62ZM121.388 22.948C120.26 22.948 119.492 22.144 119.492 20.62C119.492 19.084 120.26 18.268 121.388 18.268C122.528 18.268 123.296 19.084 123.296 20.62C123.296 22.144 122.528 22.948 121.388 22.948ZM126.657 23.62C127.809 23.62 128.553 22.732 128.745 21.904V22.516C128.745 23.248 129.129 23.5 129.705 23.5H130.245V22.792H129.909C129.633 22.792 129.501 22.684 129.501 22.384V19.684C129.501 18.4 128.805 17.62 127.461 17.62C126.237 17.62 125.397 18.304 125.037 18.904L125.589 19.456C125.889 18.82 126.513 18.328 127.377 18.328C128.313 18.328 128.721 18.832 128.721 19.696V19.744L126.537 20.74C125.733 21.1 125.169 21.58 125.169 22.336C125.169 23.104 125.709 23.62 126.657 23.62ZM125.961 22.228C125.961 21.796 126.249 21.508 126.873 21.22L128.745 20.332V21.352C128.745 22.132 127.953 22.96 126.885 22.96C126.321 22.96 125.961 22.708 125.961 22.228ZM133.558 23.632C134.698 23.632 135.31 22.84 135.49 21.928V23.5H136.27V15.46H135.49V19.324C135.31 18.412 134.698 17.62 133.558 17.62C132.058 17.62 131.158 18.808 131.158 20.62C131.158 22.444 132.058 23.632 133.558 23.632ZM131.962 20.62C131.962 19.012 132.754 18.28 133.798 18.28C134.962 18.28 135.49 19.12 135.49 20.08V21.16C135.49 22.12 134.962 22.972 133.798 22.972C132.754 22.972 131.962 22.24 131.962 20.62ZM142.892 23.62C144.476 23.62 145.592 22.444 145.592 20.62C145.592 18.796 144.476 17.62 142.892 17.62C141.308 17.62 140.204 18.796 140.204 20.62C140.204 22.444 141.308 23.62 142.892 23.62ZM142.892 22.948C141.764 22.948 140.996 22.144 140.996 20.62C140.996 19.084 141.764 18.268 142.892 18.268C144.032 18.268 144.8 19.084 144.8 20.62C144.8 22.144 144.032 22.948 142.892 22.948ZM147.767 23.5V20.164C147.767 19.168 148.259 18.28 149.471 18.28C150.467 18.28 150.899 18.856 150.899 19.792V23.5H151.691V19.612C151.691 18.292 150.923 17.62 149.783 17.62C148.631 17.62 147.971 18.412 147.767 19.348V17.74H146.975V23.5H147.767ZM157.847 23.632C158.591 23.632 159.155 23.284 159.407 22.864L159.131 22.096C158.939 22.504 158.519 22.876 158.003 22.876C157.499 22.876 157.067 22.648 157.067 21.82V18.352H158.999V17.74H157.067V16.324L156.287 16.912V17.74H155.351V18.352H156.287V22.036C156.287 23.08 156.971 23.632 157.847 23.632ZM161.267 23.5V20.164C161.267 19.168 161.771 18.28 163.007 18.28C163.991 18.28 164.399 18.856 164.399 19.792V23.5H165.191V19.612C165.191 18.292 164.447 17.62 163.331 17.62C162.155 17.62 161.471 18.412 161.267 19.348V15.46H160.475V23.5H161.267ZM169.215 23.62C170.439 23.62 171.207 23.032 171.615 22.324L171.135 21.76C170.883 22.324 170.379 22.96 169.215 22.96C168.075 22.96 167.295 22.24 167.247 20.8H171.639C171.651 20.704 171.675 20.56 171.675 20.416C171.675 18.676 170.691 17.62 169.119 17.62C167.559 17.62 166.491 18.748 166.491 20.62C166.491 22.528 167.607 23.62 169.215 23.62ZM169.119 18.268C170.175 18.268 170.883 18.928 170.955 20.224H167.259C167.367 18.928 168.063 18.268 169.119 18.268Z" fill="white"/>
<path d="M92.3973 42.644C95.0793 42.644 96.6093 40.682 96.6993 37.964L97.2573 42.5H98.5533V36.254H93.0453V37.964H96.5193C96.0873 39.638 95.1873 40.736 93.1533 40.736C90.7773 40.736 89.6073 39.008 89.6073 36.452C89.6073 33.95 90.7593 32.186 93.2793 32.186C95.2233 32.186 96.3753 33.374 96.7353 34.922L98.4993 33.662C97.6713 31.484 95.7993 30.26 93.2613 30.26C89.5173 30.26 87.4473 32.906 87.4473 36.452C87.4473 40.286 89.3013 42.644 92.3973 42.644ZM104.398 42.68C106.954 42.68 108.682 40.844 108.682 38.126C108.682 35.39 106.954 33.554 104.398 33.554C101.878 33.554 100.15 35.39 100.15 38.126C100.15 40.844 101.878 42.68 104.398 42.68ZM104.416 41.006C103.12 41.006 102.22 40.142 102.22 38.126C102.22 36.092 103.12 35.228 104.416 35.228C105.73 35.228 106.63 36.092 106.63 38.126C106.63 40.142 105.73 41.006 104.416 41.006ZM114.276 42.68C116.832 42.68 118.56 40.844 118.56 38.126C118.56 35.39 116.832 33.554 114.276 33.554C111.756 33.554 110.028 35.39 110.028 38.126C110.028 40.844 111.756 42.68 114.276 42.68ZM114.294 41.006C112.998 41.006 112.098 40.142 112.098 38.126C112.098 36.092 112.998 35.228 114.294 35.228C115.608 35.228 116.508 36.092 116.508 38.126C116.508 40.142 115.608 41.006 114.294 41.006ZM123.802 39.872C125.962 39.872 127.42 38.576 127.42 36.722C127.42 35.624 126.916 34.724 126.052 34.166L127.69 32.366L125.746 31.7L125.314 33.806C124.864 33.644 124.36 33.554 123.802 33.554C121.642 33.554 120.166 34.868 120.166 36.722C120.166 37.838 120.706 38.756 121.588 39.296C120.778 39.854 120.094 40.628 120.094 41.42C120.094 42.086 120.508 42.5 121.138 42.68C120.292 42.878 119.5 43.328 119.5 44.156C119.5 45.254 120.922 46.028 123.37 46.028C126.556 46.028 128.176 44.768 128.176 43.112C128.176 41.798 127.222 41.096 125.476 41.096H122.65C121.84 41.096 121.606 40.862 121.606 40.412C121.606 40.106 121.804 39.764 121.966 39.494C122.488 39.746 123.118 39.872 123.802 39.872ZM123.802 38.432C122.848 38.432 122.092 37.82 122.092 36.722C122.092 35.624 122.848 35.012 123.802 35.012C124.756 35.012 125.512 35.624 125.512 36.722C125.512 37.82 124.756 38.432 123.802 38.432ZM123.46 44.516C121.858 44.516 121.138 44.138 121.138 43.49C121.138 43.184 121.354 42.896 121.552 42.698H125.206C125.98 42.698 126.358 42.896 126.358 43.364C126.358 44.102 125.35 44.516 123.46 44.516ZM131.481 42.5V30.44H129.465V42.5H131.481ZM137.502 42.68C139.446 42.68 140.634 41.798 141.3 40.79L140.058 39.494C139.734 40.232 139.05 41.024 137.52 41.024C136.134 41.024 135.216 40.178 135.108 38.612H141.372C141.408 38.432 141.444 38.054 141.444 37.73C141.444 35.3 139.986 33.554 137.358 33.554C134.892 33.554 133.182 35.372 133.182 38.126C133.182 40.862 134.892 42.68 137.502 42.68ZM137.358 35.174C138.69 35.174 139.482 35.93 139.626 37.316H135.126C135.288 35.894 136.116 35.174 137.358 35.174ZM149.151 42.5V38.684H152.049C154.605 38.684 156.567 37.37 156.567 34.616C156.567 31.736 154.587 30.44 152.049 30.44H147.117V42.5H149.151ZM151.851 32.24C153.237 32.24 154.461 32.744 154.461 34.616C154.461 36.362 153.237 36.884 151.851 36.884H149.151V32.24H151.851ZM160.081 42.5V30.44H158.065V42.5H160.081ZM164.067 42.68C165.903 42.68 166.749 41.312 167.019 40.16V40.808C167.019 42.068 167.757 42.5 168.693 42.5H169.935V40.772H169.377C169.053 40.772 168.909 40.646 168.909 40.25V36.956C168.909 34.796 167.685 33.554 165.507 33.554C163.563 33.554 162.195 34.562 161.511 35.498L162.717 36.938C163.221 36.02 164.139 35.336 165.309 35.336C166.515 35.336 166.911 35.93 166.983 36.812L164.049 38.054C162.627 38.612 161.763 39.368 161.763 40.61C161.763 41.87 162.627 42.68 164.067 42.68ZM163.707 40.304C163.707 39.854 164.013 39.548 164.769 39.206L167.019 38.198V39.134C167.019 40.322 166.119 41.114 164.787 41.114C164.049 41.114 163.707 40.808 163.707 40.304ZM172.941 45.506C174.363 45.506 175.389 44.876 176.019 43.112L179.259 33.734H177.027L175.461 38.702L174.831 41.042L174.201 38.702L172.617 33.734H170.403L173.301 41.96H174.543L174.381 42.446C174.057 43.418 173.625 43.724 172.941 43.724C172.131 43.724 171.591 43.22 171.123 42.554L170.169 44.174C170.655 44.858 171.681 45.506 172.941 45.506Z" fill="white"/>
</svg>
