<svg width="208" height="62" viewBox="0 0 208 62" fill="none" xmlns="http://www.w3.org/2000/svg">
<rect width="208" height="62" rx="31" fill="#1A1A1A"/>
<g clip-path="url(#clip0_397_6857)">
<path d="M71.5013 41.6135C70.9267 42.9412 70.2464 44.1632 69.4583 45.2868C68.384 46.8184 67.5044 47.8787 66.8265 48.4674C65.7757 49.4338 64.6498 49.9287 63.4442 49.9569C62.5787 49.9569 61.5349 49.7106 60.3198 49.211C59.1008 48.7137 57.9806 48.4674 56.9562 48.4674C55.882 48.4674 54.7298 48.7137 53.4974 49.211C52.2632 49.7106 51.2689 49.9709 50.5086 49.9967C49.3525 50.046 48.2001 49.537 47.0498 48.4674C46.3156 47.8271 45.3973 46.7293 44.2973 45.1742C43.1169 43.5135 42.1466 41.5877 41.3864 39.3923C40.5722 37.0208 40.1641 34.7245 40.1641 32.5013C40.1641 29.9547 40.7143 27.7583 41.8165 25.9177C42.6828 24.4392 43.8352 23.273 45.2775 22.4169C46.7198 21.5607 48.2782 21.1244 49.9565 21.0965C50.8748 21.0965 52.079 21.3806 53.5755 21.9388C55.0678 22.4989 56.026 22.783 56.4461 22.783C56.7601 22.783 57.8246 22.4509 59.6291 21.7887C61.3355 21.1746 62.7757 20.9204 63.9555 21.0205C67.1526 21.2785 69.5545 22.5388 71.1518 24.8094C68.2925 26.5418 66.8781 28.9684 66.9063 32.0812C66.9321 34.5059 67.8117 36.5236 69.5404 38.1256C70.3238 38.8692 71.1987 39.4439 72.1722 39.852C71.9611 40.4642 71.7382 41.0506 71.5013 41.6135ZM64.169 12.7602C64.169 14.6607 63.4747 16.4351 62.0908 18.0775C60.4207 20.03 58.4007 21.1582 56.2101 20.9802C56.1822 20.7522 56.166 20.5122 56.166 20.2601C56.166 18.4356 56.9602 16.4832 58.3706 14.8867C59.0748 14.0784 59.9703 13.4064 61.0564 12.8702C62.14 12.3421 63.1651 12.05 64.1291 12C64.1572 12.2541 64.169 12.5081 64.169 12.7602V12.7602Z" fill="white"/>
</g>
<path d="M88.8679 23.5C91.3999 23.5 92.6479 22.024 92.6479 19.48C92.6479 16.936 91.3999 15.46 88.8679 15.46H86.2159V23.5H88.8679ZM88.7599 16.156C90.7519 16.156 91.8439 17.152 91.8439 19.48C91.8439 21.808 90.7519 22.804 88.7599 22.804H87.0079V16.156H88.7599ZM96.4506 23.62C98.0346 23.62 99.1506 22.444 99.1506 20.62C99.1506 18.796 98.0346 17.62 96.4506 17.62C94.8666 17.62 93.7626 18.796 93.7626 20.62C93.7626 22.444 94.8666 23.62 96.4506 23.62ZM96.4506 22.948C95.3226 22.948 94.5546 22.144 94.5546 20.62C94.5546 19.084 95.3226 18.268 96.4506 18.268C97.5906 18.268 98.3586 19.084 98.3586 20.62C98.3586 22.144 97.5906 22.948 96.4506 22.948ZM102.243 23.5L103.467 19.66L103.803 18.4L104.127 19.66L105.351 23.5H106.371L107.943 17.74H107.055L106.119 21.628L105.855 22.912L105.507 21.628L104.283 17.74H103.311L102.087 21.628L101.739 22.912L101.475 21.628L100.527 17.74H99.6513L101.223 23.5H102.243ZM109.552 23.5V20.164C109.552 19.168 110.044 18.28 111.256 18.28C112.252 18.28 112.684 18.856 112.684 19.792V23.5H113.476V19.612C113.476 18.292 112.708 17.62 111.568 17.62C110.416 17.62 109.756 18.412 109.552 19.348V17.74H108.76V23.5H109.552ZM115.903 23.5V15.46H115.111V23.5H115.903ZM119.888 23.62C121.472 23.62 122.588 22.444 122.588 20.62C122.588 18.796 121.472 17.62 119.888 17.62C118.304 17.62 117.2 18.796 117.2 20.62C117.2 22.444 118.304 23.62 119.888 23.62ZM119.888 22.948C118.76 22.948 117.992 22.144 117.992 20.62C117.992 19.084 118.76 18.268 119.888 18.268C121.028 18.268 121.796 19.084 121.796 20.62C121.796 22.144 121.028 22.948 119.888 22.948ZM125.157 23.62C126.309 23.62 127.053 22.732 127.245 21.904V22.516C127.245 23.248 127.629 23.5 128.205 23.5H128.745V22.792H128.409C128.133 22.792 128.001 22.684 128.001 22.384V19.684C128.001 18.4 127.305 17.62 125.961 17.62C124.737 17.62 123.897 18.304 123.537 18.904L124.089 19.456C124.389 18.82 125.013 18.328 125.877 18.328C126.813 18.328 127.221 18.832 127.221 19.696V19.744L125.037 20.74C124.233 21.1 123.669 21.58 123.669 22.336C123.669 23.104 124.209 23.62 125.157 23.62ZM124.461 22.228C124.461 21.796 124.749 21.508 125.373 21.22L127.245 20.332V21.352C127.245 22.132 126.453 22.96 125.385 22.96C124.821 22.96 124.461 22.708 124.461 22.228ZM132.058 23.632C133.198 23.632 133.81 22.84 133.99 21.928V23.5H134.77V15.46H133.99V19.324C133.81 18.412 133.198 17.62 132.058 17.62C130.558 17.62 129.658 18.808 129.658 20.62C129.658 22.444 130.558 23.632 132.058 23.632ZM130.462 20.62C130.462 19.012 131.254 18.28 132.298 18.28C133.462 18.28 133.99 19.12 133.99 20.08V21.16C133.99 22.12 133.462 22.972 132.298 22.972C131.254 22.972 130.462 22.24 130.462 20.62ZM141.392 23.62C142.976 23.62 144.092 22.444 144.092 20.62C144.092 18.796 142.976 17.62 141.392 17.62C139.808 17.62 138.704 18.796 138.704 20.62C138.704 22.444 139.808 23.62 141.392 23.62ZM141.392 22.948C140.264 22.948 139.496 22.144 139.496 20.62C139.496 19.084 140.264 18.268 141.392 18.268C142.532 18.268 143.3 19.084 143.3 20.62C143.3 22.144 142.532 22.948 141.392 22.948ZM146.267 23.5V20.164C146.267 19.168 146.759 18.28 147.971 18.28C148.967 18.28 149.399 18.856 149.399 19.792V23.5H150.191V19.612C150.191 18.292 149.423 17.62 148.283 17.62C147.131 17.62 146.471 18.412 146.267 19.348V17.74H145.475V23.5H146.267ZM156.347 23.632C157.091 23.632 157.655 23.284 157.907 22.864L157.631 22.096C157.439 22.504 157.019 22.876 156.503 22.876C155.999 22.876 155.567 22.648 155.567 21.82V18.352H157.499V17.74H155.567V16.324L154.787 16.912V17.74H153.851V18.352H154.787V22.036C154.787 23.08 155.471 23.632 156.347 23.632ZM159.767 23.5V20.164C159.767 19.168 160.271 18.28 161.507 18.28C162.491 18.28 162.899 18.856 162.899 19.792V23.5H163.691V19.612C163.691 18.292 162.947 17.62 161.831 17.62C160.655 17.62 159.971 18.412 159.767 19.348V15.46H158.975V23.5H159.767ZM167.715 23.62C168.939 23.62 169.707 23.032 170.115 22.324L169.635 21.76C169.383 22.324 168.879 22.96 167.715 22.96C166.575 22.96 165.795 22.24 165.747 20.8H170.139C170.151 20.704 170.175 20.56 170.175 20.416C170.175 18.676 169.191 17.62 167.619 17.62C166.059 17.62 164.991 18.748 164.991 20.62C164.991 22.528 166.107 23.62 167.715 23.62ZM167.619 18.268C168.675 18.268 169.383 18.928 169.455 20.224H165.759C165.867 18.928 166.563 18.268 167.619 18.268Z" fill="white"/>
<path d="M87.5787 42.5L88.7307 39.458H93.8247L94.9767 42.5H97.2087L92.4927 30.44H90.1527L85.4367 42.5H87.5787ZM90.6387 34.436L91.2867 32.258L91.9347 34.436L93.1587 37.694H89.3967L90.6387 34.436ZM100.378 45.848V40.16C100.666 41.51 101.404 42.68 103.15 42.68C105.31 42.68 106.678 40.934 106.678 38.108C106.678 35.282 105.31 33.536 103.186 33.536C101.44 33.536 100.666 34.706 100.378 36.074V33.734H98.3618V45.848H100.378ZM100.378 38.648V37.568C100.378 36.128 100.972 35.174 102.394 35.174C103.654 35.174 104.608 36.128 104.608 38.108C104.608 40.088 103.654 41.042 102.394 41.042C100.972 41.042 100.378 40.088 100.378 38.648ZM110.362 45.848V40.16C110.65 41.51 111.388 42.68 113.134 42.68C115.294 42.68 116.662 40.934 116.662 38.108C116.662 35.282 115.294 33.536 113.17 33.536C111.424 33.536 110.65 34.706 110.362 36.074V33.734H108.346V45.848H110.362ZM110.362 38.648V37.568C110.362 36.128 110.956 35.174 112.378 35.174C113.638 35.174 114.592 36.128 114.592 38.108C114.592 40.088 113.638 41.042 112.378 41.042C110.956 41.042 110.362 40.088 110.362 38.648ZM123.389 42.68C125.837 42.68 127.673 41.42 127.673 39.242C127.673 36.938 125.945 36.182 124.019 35.714L122.669 35.39C121.355 35.066 120.527 34.688 120.527 33.626C120.527 32.708 121.355 32.168 122.507 32.168C123.983 32.168 125.279 32.816 125.945 34.31L127.475 32.852C126.611 31.196 124.847 30.278 122.633 30.278C120.365 30.278 118.403 31.502 118.403 33.77C118.403 36.056 120.221 36.83 121.931 37.19L123.065 37.442C124.631 37.784 125.603 38.108 125.603 39.278C125.603 40.376 124.631 40.808 123.425 40.808C121.949 40.808 120.131 40.124 119.483 38.36L118.043 39.818C118.979 41.852 121.085 42.68 123.389 42.68ZM132.256 42.698C133.534 42.698 134.398 42.104 134.776 41.546L134.146 39.746C133.894 40.25 133.39 40.808 132.706 40.808C132.112 40.808 131.662 40.574 131.662 39.62V35.3H134.344V33.734H131.662V31.394L129.646 32.672V33.734H128.278V35.3H129.646V40.106C129.646 41.654 130.6 42.698 132.256 42.698ZM139.247 42.68C141.803 42.68 143.531 40.844 143.531 38.126C143.531 35.39 141.803 33.554 139.247 33.554C136.727 33.554 134.999 35.39 134.999 38.126C134.999 40.844 136.727 42.68 139.247 42.68ZM139.265 41.006C137.969 41.006 137.069 40.142 137.069 38.126C137.069 36.092 137.969 35.228 139.265 35.228C140.579 35.228 141.479 36.092 141.479 38.126C141.479 40.142 140.579 41.006 139.265 41.006ZM147.276 42.5V37.676C147.276 36.218 148.212 35.066 149.22 35.066C149.814 35.066 150.048 35.462 150.048 35.948C150.048 36.452 149.778 37.028 149.49 37.316H151.56C151.722 37.046 151.956 36.416 151.956 35.57C151.956 34.274 151.146 33.554 150.048 33.554C148.482 33.554 147.6 34.814 147.276 36.218V33.734H145.26V42.5H147.276ZM156.971 42.68C158.915 42.68 160.103 41.798 160.769 40.79L159.527 39.494C159.203 40.232 158.519 41.024 156.989 41.024C155.603 41.024 154.685 40.178 154.577 38.612H160.841C160.877 38.432 160.913 38.054 160.913 37.73C160.913 35.3 159.455 33.554 156.827 33.554C154.361 33.554 152.651 35.372 152.651 38.126C152.651 40.862 154.361 42.68 156.971 42.68ZM156.827 35.174C158.159 35.174 158.951 35.93 159.095 37.316H154.595C154.757 35.894 155.585 35.174 156.827 35.174Z" fill="white"/>
<defs>
<clipPath id="clip0_397_6857">
<rect width="38" height="38" fill="white" transform="translate(37 12)"/>
</clipPath>
</defs>
</svg>
