<svg width="129" height="43" viewBox="0 0 129 43" fill="none" xmlns="http://www.w3.org/2000/svg">
<path d="M16.5055 33.1685C21.3253 33.1685 24.9572 31.5915 27.8004 28.6286C30.7271 25.6985 31.6357 21.5965 31.6357 18.278C31.6357 17.2475 31.5567 16.3027 31.3987 15.5092H16.5055V19.9339H27.0925C26.7765 22.4228 25.9436 24.2401 24.6846 25.5043C23.1413 27.0418 20.734 28.7438 16.5055 28.7438C9.98801 28.7438 4.89072 23.4895 4.89072 16.971C4.89072 10.4524 9.98801 5.19484 16.5055 5.19484C20.019 5.19484 22.5911 6.58085 24.4841 8.35862L27.6061 5.23764C24.9572 2.71253 21.4438 0.773438 16.5055 0.773438C7.5755 0.773438 0.0703125 8.03928 0.0703125 16.971C0.0703125 25.8994 7.5755 33.1685 16.5055 33.1685ZM43.6884 33.1685C49.453 33.1685 54.1543 28.7438 54.1543 22.7356C54.1543 16.6944 49.453 12.3092 43.6884 12.3092C37.9139 12.3092 33.2127 16.6944 33.2127 22.7356C33.2127 28.7438 37.9139 33.1685 43.6884 33.1685ZM43.6884 29.0599C40.5246 29.0599 37.7954 26.4524 37.7954 22.7356C37.7954 18.9858 40.5246 16.4212 43.6884 16.4212C46.8456 16.4212 49.5715 18.9858 49.5715 22.7356C49.5715 26.4524 46.8456 29.0599 43.6884 29.0599ZM66.5197 33.1685C72.2876 33.1685 76.9888 28.7438 76.9888 22.7356C76.9888 16.6944 72.2876 12.3092 66.5197 12.3092C60.7485 12.3092 56.0473 16.6944 56.0473 22.7356C56.0473 28.7438 60.7485 33.1685 66.5197 33.1685ZM66.5197 29.0599C63.3592 29.0599 60.63 26.4524 60.63 22.7356C60.63 18.9858 63.3592 16.4212 66.5197 16.4212C69.6802 16.4212 72.4061 18.9858 72.4061 22.7356C72.4061 26.4524 69.6802 29.0599 66.5197 29.0599ZM88.9592 42.5315C94.3288 42.5315 98.8785 39.3743 98.8785 31.6673V12.9413H94.5296V14.6401H94.3716C93.3411 13.4154 91.3658 12.3092 88.8835 12.3092C83.6654 12.3092 78.8884 16.892 78.8884 22.7784C78.8884 28.6286 83.6654 33.1685 88.8835 33.1685C91.3658 33.1685 93.3411 32.0623 94.3716 30.7981H94.5296V32.2994C94.5296 36.2928 92.3962 38.4228 88.9592 38.4228C86.1576 38.4228 84.416 36.4113 83.7016 34.7059L79.7148 36.3685C80.8637 39.1372 83.9024 42.5315 88.9592 42.5315ZM89.272 29.0599C86.1148 29.0599 83.4646 26.4162 83.4646 22.7784C83.4646 19.1043 86.1148 16.4212 89.272 16.4212C92.3962 16.4212 94.8456 19.1043 94.8456 22.7784C94.8456 26.4162 92.3962 29.0599 89.272 29.0599ZM106.618 1.87961H102.036V32.5364H106.618V1.87961ZM119.181 33.1685C123.958 33.1685 126.727 30.2483 127.873 28.5463L124.314 26.1792C123.132 27.9109 121.512 29.0599 119.181 29.0599C116.851 29.0599 115.188 27.9932 114.125 25.8994L128.07 20.1282L127.596 18.9463C126.727 16.6154 124.077 12.3092 118.668 12.3092C113.295 12.3092 108.831 16.5397 108.831 22.7356C108.831 28.5858 113.256 33.1685 119.181 33.1685ZM113.374 22.4228C113.256 18.3965 116.495 16.3389 118.826 16.3389C120.643 16.3389 122.184 17.2475 122.701 18.5512L113.374 22.4228Z" fill="#4B5563"/>
</svg>
