<svg width="86" height="28" viewBox="0 0 86 28" fill="none" xmlns="http://www.w3.org/2000/svg">
<path fill-rule="evenodd" clip-rule="evenodd" d="M11.9094 9.94632V12.9148L18.9993 12.9117C18.7819 14.5489 18.2301 15.7477 17.3912 16.5867C16.3573 17.6214 14.7437 18.7602 11.9094 18.7602C7.54098 18.7602 4.12286 15.2367 4.12286 10.8644C4.12286 6.49213 7.54098 2.96846 11.9094 2.96846C14.2671 2.96846 15.988 3.89591 17.2588 5.08833L19.3518 2.9937C17.5807 1.29969 15.223 0 11.9122 0C5.93016 0 0.898438 4.87698 0.898438 10.8644C0.898438 16.8518 5.93016 21.7287 11.9122 21.7287C15.1408 21.7287 17.5779 20.6688 19.4842 18.6814C21.4447 16.7192 22.0537 13.9653 22.0537 11.7382C22.0537 11.0757 22.0035 10.4638 21.906 9.94632H11.9094ZM71.7132 21.3028V0.798046H68.7187V21.3028H71.7132ZM30.2597 21.7318C34.1237 21.7318 37.2729 18.7633 37.2729 14.7349C37.2729 10.6781 34.1237 7.73811 30.2597 7.73811C26.3943 7.73811 23.2451 10.6781 23.2451 14.7349C23.2451 18.7633 26.3943 21.7318 30.2597 21.7318ZM30.2597 10.4952C32.3777 10.4952 34.2031 12.2176 34.2031 14.7349C34.2031 17.224 32.3777 18.9747 30.2597 18.9747C28.1416 18.9747 26.3162 17.2271 26.3162 14.7349C26.3162 12.2176 28.1416 10.4952 30.2597 10.4952ZM45.3911 21.7318C49.2551 21.7318 52.4043 18.7633 52.4043 14.7349C52.4043 10.6781 49.2551 7.73811 45.3911 7.73811C41.5257 7.73811 38.3765 10.6813 38.3765 14.7349C38.3765 18.7633 41.5257 21.7318 45.3911 21.7318ZM45.3911 10.4952C47.5091 10.4952 49.3345 12.2176 49.3345 14.7349C49.3345 17.224 47.5091 18.9747 45.3911 18.9747C43.273 18.9747 41.4476 17.2271 41.4476 14.7349C41.4476 12.2176 43.273 10.4952 45.3911 10.4952ZM66.9058 8.16398V20.7223C66.9058 25.8895 63.8597 28 60.2605 28C56.8716 28 54.8316 25.7318 54.0625 23.877L56.7351 22.7634C57.2116 23.9022 58.3779 25.246 60.2563 25.246C62.5611 25.246 63.9893 23.8233 63.9893 21.1451V20.1388H63.882C63.1951 20.9873 61.8713 21.7287 60.2006 21.7287C56.7044 21.7287 53.5009 18.6813 53.5009 14.7602C53.5009 10.8107 56.7044 7.73811 60.2006 7.73811C61.8671 7.73811 63.1923 8.47938 63.882 9.3028H63.9893V8.16398H66.9058ZM64.2067 14.7602C64.2067 12.2965 62.5638 10.4952 60.4737 10.4952C58.3557 10.4952 56.5818 12.2965 56.5818 14.7602C56.5818 17.1988 58.3557 18.9747 60.4737 18.9747C62.5638 18.9747 64.2067 17.1988 64.2067 14.7602ZM83.3833 17.0378L85.7661 18.6278C84.9969 19.7666 83.1436 21.7287 79.9401 21.7287C75.9688 21.7287 73.0021 18.6562 73.0021 14.7319C73.0021 10.571 75.9939 7.73502 79.5973 7.73502C83.2258 7.73502 84.9997 10.6246 85.5807 12.1862L85.8984 12.9812L76.5512 16.8549C77.2675 18.2587 78.3794 18.9748 79.9401 18.9748C81.5035 18.9748 82.589 18.2051 83.3833 17.0378ZM76.0468 14.5205L82.295 11.9243C81.9522 11.0504 80.9183 10.4416 79.7004 10.4416C78.1411 10.4416 75.9688 11.8202 76.0468 14.5205Z" fill="#6B7280"/>
</svg>
