<svg width="48" height="48" viewBox="0 0 48 48" fill="none" xmlns="http://www.w3.org/2000/svg">
<rect width="48" height="48" rx="8" fill="#EBEBFF"/>
<path fill-rule="evenodd" clip-rule="evenodd" d="M18.6768 11.0608C18.5669 10.6509 18.2986 10.3014 17.9311 10.0893C17.5635 9.87712 17.1267 9.81969 16.7168 9.92959C16.3069 10.0395 15.9574 10.3077 15.7453 10.6753C15.5331 11.0429 15.4757 11.4797 15.5856 11.8896L16 13.4352C16.1099 13.8451 16.3781 14.1946 16.7457 14.4067C17.1133 14.6189 17.5501 14.6763 17.96 14.5664C18.3699 14.4565 18.7194 14.1882 18.9315 13.8207C19.1437 13.4531 19.2011 13.0163 19.0912 12.6064L18.6752 11.0608H18.6768ZM11.888 15.5872C11.6847 15.5318 11.4724 15.5171 11.2634 15.5439C11.0543 15.5707 10.8527 15.6386 10.67 15.7436C10.4872 15.8486 10.3271 15.9887 10.1986 16.1558C10.0702 16.3229 9.97605 16.5137 9.92157 16.7173C9.86709 16.9208 9.85337 17.1332 9.88119 17.3421C9.90901 17.551 9.97782 17.7523 10.0837 17.9345C10.1895 18.1168 10.3303 18.2763 10.498 18.4039C10.6657 18.5316 10.857 18.6249 11.0608 18.6784L12.6064 19.0928C13.0156 19.2002 13.4507 19.1413 13.8165 18.9288C14.1823 18.7163 14.449 18.3675 14.5584 17.9589C14.6678 17.5502 14.6108 17.1148 14.4 16.748C14.1892 16.3812 13.8418 16.1129 13.4336 16.0016L11.888 15.5856V15.5872ZM25.9904 14.6768C26.1389 14.5281 26.2568 14.3517 26.3371 14.1575C26.4175 13.9633 26.4588 13.7552 26.4587 13.545C26.4586 13.3349 26.4172 13.1268 26.3367 12.9327C26.2562 12.7385 26.1383 12.5621 25.9896 12.4136C25.8409 12.265 25.6645 12.1472 25.4703 12.0669C25.2761 11.9865 25.068 11.9452 24.8578 11.9453C24.6477 11.9453 24.4396 11.9868 24.2455 12.0673C24.0513 12.1478 23.8749 12.2657 23.7264 12.4144L22.5952 13.5456C22.4465 13.6942 22.3286 13.8707 22.2482 14.065C22.1677 14.2592 22.1263 14.4674 22.1263 14.6776C22.1263 14.8878 22.1677 15.096 22.2482 15.2902C22.3286 15.4845 22.4465 15.6609 22.5952 15.8096C22.7439 15.9583 22.9203 16.0762 23.1146 16.1566C23.3088 16.2371 23.517 16.2785 23.7272 16.2785C23.9374 16.2785 24.1456 16.2371 24.3398 16.1566C24.5341 16.0762 24.7105 15.9583 24.8592 15.8096L25.9904 14.6768ZM14.6768 25.992L15.808 24.8608C16.1084 24.5608 16.2774 24.1537 16.2777 23.7291C16.278 23.3045 16.1096 22.8972 15.8096 22.5968C15.5096 22.2964 15.1025 22.1274 14.6779 22.1271C14.2533 22.1268 13.846 22.2952 13.5456 22.5952L12.4128 23.7264C12.1126 24.0266 11.9439 24.4338 11.9439 24.8584C11.9439 25.283 12.1126 25.6902 12.4128 25.9904C12.713 26.2906 13.1202 26.4593 13.5448 26.4593C13.9694 26.4593 14.3766 26.2906 14.6768 25.9904V25.992ZM19.7968 17.7184C19.506 17.602 19.1875 17.5735 18.8807 17.6365C18.5739 17.6994 18.2923 17.851 18.0708 18.0724C17.8494 18.2939 17.6978 18.5755 17.6349 18.8823C17.5719 19.1891 17.6004 19.5076 17.7168 19.7984L24.1168 35.7984C24.2315 36.0848 24.4265 36.3319 24.6783 36.51C24.9302 36.6881 25.2282 36.7896 25.5364 36.8023C25.8446 36.8149 26.1499 36.7383 26.4155 36.5814C26.6811 36.4246 26.8958 36.1944 27.0336 35.9184L29.2416 31.504L34.0704 36.336C34.3706 36.636 34.7777 36.8045 35.2022 36.8043C35.6266 36.8042 36.0336 36.6354 36.3336 36.3352C36.6336 36.035 36.8021 35.6279 36.8019 35.2034C36.8018 34.779 36.633 34.372 36.3328 34.072L31.5024 29.24L35.9184 27.0336C36.1938 26.8955 36.4235 26.6807 36.5799 26.4152C36.7362 26.1496 36.8126 25.8446 36.7997 25.5367C36.7869 25.2288 36.6854 24.9312 36.5075 24.6796C36.3296 24.428 36.0828 24.2331 35.7968 24.1184L19.7968 17.7184Z" fill="#6666FF"/>
</svg>
