<svg width="48" height="48" viewBox="0 0 48 48" fill="none" xmlns="http://www.w3.org/2000/svg">
<rect width="48" height="48" rx="8" fill="#EBEBFF"/>
<path fill-rule="evenodd" clip-rule="evenodd" d="M27.7068 12.8789C27.9062 12.9453 28.0906 13.0503 28.2495 13.1879C28.4083 13.3256 28.5385 13.4932 28.6325 13.6811C28.7266 13.8691 28.7827 14.0737 28.7976 14.2834C28.8126 14.493 28.7861 14.7035 28.7196 14.9029L22.3196 34.1029C22.1855 34.5056 21.897 34.8386 21.5174 35.0285C21.1378 35.2185 20.6983 35.2498 20.2956 35.1157C19.8929 34.9816 19.56 34.6931 19.37 34.3135C19.1801 33.9339 19.1487 33.4944 19.2828 33.0917L25.6828 13.8917C25.7492 13.6923 25.8542 13.5079 25.9918 13.3491C26.1295 13.1902 26.297 13.0601 26.485 12.966C26.673 12.872 26.8776 12.8159 27.0872 12.8009C27.2969 12.786 27.5074 12.8125 27.7068 12.8789V12.8789ZM17.1324 18.0661C17.4324 18.3662 17.6009 18.7731 17.6009 19.1973C17.6009 19.6216 17.4324 20.0285 17.1324 20.3285L13.4636 23.9973L17.1324 27.6661C17.2852 27.8137 17.4071 27.9903 17.491 28.1855C17.5748 28.3807 17.619 28.5906 17.6208 28.8031C17.6227 29.0155 17.5822 29.2262 17.5017 29.4229C17.4213 29.6195 17.3025 29.7981 17.1523 29.9484C17.002 30.0986 16.8234 30.2174 16.6267 30.2979C16.4301 30.3783 16.2194 30.4188 16.007 30.4169C15.7945 30.4151 15.5846 30.371 15.3894 30.2871C15.1942 30.2032 15.0176 30.0814 14.87 29.9285L10.07 25.1285C9.77007 24.8285 9.60156 24.4216 9.60156 23.9973C9.60156 23.5731 9.77007 23.1662 10.07 22.8661L14.87 18.0661C15.1701 17.7662 15.577 17.5977 16.0012 17.5977C16.4255 17.5977 16.8324 17.7662 17.1324 18.0661V18.0661ZM30.87 18.0661C31.1701 17.7662 31.577 17.5977 32.0012 17.5977C32.4255 17.5977 32.8324 17.7662 33.1324 18.0661L37.9324 22.8661C38.2324 23.1662 38.4009 23.5731 38.4009 23.9973C38.4009 24.4216 38.2324 24.8285 37.9324 25.1285L33.1324 29.9285C32.9848 30.0814 32.8083 30.2032 32.6131 30.2871C32.4179 30.371 32.2079 30.4151 31.9955 30.4169C31.783 30.4188 31.5723 30.3783 31.3757 30.2979C31.1791 30.2174 31.0004 30.0986 30.8502 29.9484C30.7 29.7981 30.5812 29.6195 30.5007 29.4229C30.4203 29.2262 30.3798 29.0155 30.3816 28.8031C30.3835 28.5906 30.4276 28.3807 30.5115 28.1855C30.5953 27.9903 30.7172 27.8137 30.87 27.6661L34.5388 23.9973L30.87 20.3285C30.5701 20.0285 30.4016 19.6216 30.4016 19.1973C30.4016 18.7731 30.5701 18.3662 30.87 18.0661V18.0661Z" fill="#6666FF"/>
</svg>
