<svg width="137" height="37" viewBox="0 0 137 37" fill="none" xmlns="http://www.w3.org/2000/svg">
<path d="M53.3384 14.375C51.604 14.375 50.7459 15.7399 50.3522 16.6203C50.1323 17.1119 50.0707 17.5006 49.8923 17.5006C49.641 17.5006 49.821 17.1628 49.6153 16.4136C49.3447 15.4279 48.5289 14.375 46.7956 14.375C44.9733 14.375 44.1932 15.9146 43.8232 16.7606C43.5702 17.339 43.5699 17.5006 43.3753 17.5006C43.0934 17.5006 43.327 17.0412 43.4537 16.5011C43.7036 15.4377 43.5137 14.625 43.5137 14.625H40.625V25.4871H44.5679C44.5679 25.4871 44.5679 20.9476 44.5679 20.0828C44.5679 19.0168 45.0138 17.6642 45.7781 17.6642C46.6612 17.6642 46.838 18.3424 46.838 19.5983C46.838 20.7369 46.838 25.4895 46.838 25.4895H50.7968C50.7968 25.4895 50.7968 20.9224 50.7968 20.0828C50.7968 19.134 51.184 17.6642 52.0128 17.6642C52.9082 17.6642 53.0668 18.617 53.0668 19.5983C53.0668 20.5796 53.0668 25.4871 53.0668 25.4871H56.9543C56.9543 25.4871 56.9543 21.1833 56.9543 19.0996C56.9543 16.2649 55.9551 14.375 53.3384 14.375Z" fill="#4B5563"/>
<path d="M120.26 14.375C118.526 14.375 117.668 15.7399 117.274 16.6203C117.054 17.1119 116.993 17.5006 116.814 17.5006C116.563 17.5006 116.731 17.0715 116.537 16.4136C116.248 15.4331 115.53 14.375 113.718 14.375C111.895 14.375 111.115 15.9146 110.745 16.7606C110.492 17.339 110.492 17.5006 110.297 17.5006C110.015 17.5006 110.249 17.0412 110.376 16.5011C110.626 15.4377 110.436 14.625 110.436 14.625H107.547V25.4871H111.49C111.49 25.4871 111.49 20.9476 111.49 20.0828C111.49 19.0168 111.936 17.6642 112.7 17.6642C113.583 17.6642 113.76 18.3424 113.76 19.5983C113.76 20.7369 113.76 25.4895 113.76 25.4895H117.719C117.719 25.4895 117.719 20.9224 117.719 20.0828C117.719 19.134 118.106 17.6642 118.935 17.6642C119.83 17.6642 119.989 18.617 119.989 19.5983C119.989 20.5796 119.989 25.4871 119.989 25.4871H123.876C123.876 25.4871 123.876 21.1833 123.876 19.0996C123.876 16.2649 122.877 14.375 120.26 14.375Z" fill="#4B5563"/>
<path d="M62.7294 22.9539C61.7865 23.1716 61.2978 22.8812 61.2978 22.2563C61.2978 21.4002 62.1832 21.0573 63.4472 21.0573C64.0043 21.0573 64.5283 21.1055 64.5283 21.1055C64.5283 21.472 63.7328 22.7224 62.7294 22.9539ZM63.6893 14.3828C60.669 14.3828 58.5018 15.4933 58.5018 15.4933V18.7573C58.5018 18.7573 60.8951 17.3812 62.8366 17.3812C64.3863 17.3812 64.5767 18.217 64.5061 18.9107C64.5061 18.9107 64.0593 18.7924 62.6953 18.7924C59.4817 18.7924 57.8594 20.253 57.8594 22.595C57.8594 24.8165 59.6827 25.7451 61.2187 25.7451C63.4602 25.7451 64.4455 24.2389 64.7483 23.5242C64.9585 23.0285 64.9967 22.6943 65.1855 22.6943C65.4005 22.6943 65.3282 22.934 65.3178 23.4274C65.2995 24.2915 65.3402 24.9447 65.4772 25.4949H68.4491V20.1493C68.4491 16.8118 67.2682 14.3828 63.6893 14.3828Z" fill="#4B5563"/>
<path d="M74.9375 25.4887H78.8806V11.3359H74.9375V25.4887Z" fill="#4B5563"/>
<path d="M83.2267 20.0639C83.2267 19.0872 84.134 18.1986 85.7998 18.1986C87.6148 18.1986 89.0746 19.0725 89.402 19.271V15.4933C89.402 15.4933 88.2487 14.3828 85.4141 14.3828C82.4259 14.3828 79.9375 16.1314 79.9375 19.8948C79.9375 23.6583 82.1957 25.7451 85.4061 25.7451C87.9136 25.7451 89.4084 24.3673 89.4084 24.3673V20.7791C88.9355 21.0438 87.6178 21.9582 85.8179 21.9582C83.912 21.9582 83.2267 21.0815 83.2267 20.0639Z" fill="#4B5563"/>
<path d="M97.3848 14.3766C95.1022 14.3766 94.2341 16.5397 94.0588 16.9153C93.8833 17.2908 93.7967 17.5068 93.6532 17.5022C93.404 17.4941 93.5777 17.0412 93.6748 16.7479C93.8584 16.1938 94.2474 14.7401 94.2474 12.9534C94.2474 11.7415 94.0835 11.3359 94.0835 11.3359H90.6797V25.4887H94.6227C94.6227 25.4887 94.6227 20.9647 94.6227 20.0845C94.6227 19.2041 94.9741 17.6658 95.9673 17.6658C96.7901 17.6658 97.0477 18.2755 97.0477 19.5031C97.0477 20.7305 97.0477 25.4887 97.0477 25.4887H100.991C100.991 25.4887 100.991 22.1783 100.991 19.7393C100.991 16.951 100.528 14.3766 97.3848 14.3766Z" fill="#4B5563"/>
<path d="M102.266 14.6406V25.4903H106.209V14.6406C106.209 14.6406 105.546 15.0283 104.241 15.0283C102.937 15.0283 102.266 14.6406 102.266 14.6406Z" fill="#4B5563"/>
<path d="M104.226 11.2266C102.893 11.2266 101.812 11.9319 101.812 12.8019C101.812 13.6718 102.893 14.3771 104.226 14.3771C105.559 14.3771 106.64 13.6718 106.64 12.8019C106.64 11.9319 105.559 11.2266 104.226 11.2266Z" fill="#4B5563"/>
<path d="M69.7188 14.6406V25.4903H73.6616V14.6406C73.6616 14.6406 72.9989 15.0283 71.6942 15.0283C70.3896 15.0283 69.7188 14.6406 69.7188 14.6406Z" fill="#4B5563"/>
<path d="M71.6791 11.2266C70.3463 11.2266 69.2656 11.9319 69.2656 12.8019C69.2656 13.6718 70.3463 14.3771 71.6791 14.3771C73.0122 14.3771 74.0928 13.6718 74.0928 12.8019C74.0928 11.9319 73.0122 11.2266 71.6791 11.2266Z" fill="#4B5563"/>
<path d="M130.624 23.1553C129.72 23.1553 129.054 22.0085 129.054 20.4107C129.054 18.8589 129.738 17.6666 130.593 17.6666C131.69 17.6666 132.158 18.6728 132.158 20.4107C132.158 22.2185 131.727 23.1553 130.624 23.1553ZM131.706 14.375C129.679 14.375 128.751 15.8949 128.347 16.7606C128.08 17.3328 128.093 17.5006 127.899 17.5006C127.617 17.5006 127.851 17.0412 127.977 16.5011C128.227 15.4377 128.037 14.625 128.037 14.625H125.148V28.487H129.091C129.091 28.487 129.091 26.2187 129.091 24.0921C129.558 24.8836 130.422 25.7293 131.755 25.7293C134.606 25.7293 136.041 23.317 136.041 20.0576C136.041 16.3634 134.323 14.375 131.706 14.375Z" fill="#4B5563"/>
<path d="M26.6976 17.6621C26.9628 17.6305 27.2168 17.629 27.4502 17.6621C27.5853 17.3523 27.6086 16.8181 27.487 16.2365C27.3064 15.372 27.062 14.8488 26.5567 14.9302C26.0516 15.0116 26.0329 15.638 26.2136 16.5026C26.3151 16.9888 26.4961 17.4045 26.6976 17.6621Z" fill="#4B5563"/>
<path d="M22.356 18.3412C22.7174 18.4999 22.9395 18.605 23.0264 18.5131C23.0823 18.4559 23.0657 18.3466 22.9794 18.2055C22.801 17.9143 22.434 17.619 22.0447 17.4531C21.2485 17.1104 20.2989 17.2244 19.5664 17.7507C19.3246 17.9279 19.0954 18.1734 19.1281 18.3224C19.1388 18.3706 19.175 18.4069 19.2598 18.4188C19.4593 18.4416 20.156 18.0893 20.9586 18.0402C21.5251 18.0055 21.9944 18.1827 22.356 18.3412Z" fill="#4B5563"/>
<path d="M21.6266 18.7545C21.1558 18.8288 20.8961 18.9841 20.7294 19.1284C20.5872 19.2526 20.4993 19.3901 20.5 19.4868C20.5003 19.5328 20.5203 19.5593 20.536 19.5727C20.5576 19.5915 20.5829 19.602 20.6134 19.602C20.7198 19.602 20.9579 19.5063 20.9579 19.5063C21.6131 19.2719 22.0452 19.3004 22.4735 19.3492C22.7102 19.3757 22.822 19.3904 22.8739 19.3093C22.8894 19.286 22.9079 19.2356 22.8606 19.1587C22.7502 18.9799 22.2749 18.6775 21.6266 18.7545" fill="#4B5563"/>
<path d="M25.228 20.2826C25.5476 20.4397 25.8995 20.378 26.0141 20.1449C26.1286 19.9119 25.9623 19.5956 25.6426 19.4384C25.323 19.2815 24.9711 19.343 24.8565 19.5762C24.742 19.8093 24.9082 20.1254 25.228 20.2826Z" fill="#4B5563"/>
<path d="M27.2781 18.4844C27.0184 18.48 26.8031 18.7652 26.797 19.1212C26.7909 19.4774 26.9966 19.7696 27.2563 19.774C27.5159 19.7785 27.7314 19.4933 27.7374 19.1372C27.7434 18.781 27.5377 18.4887 27.2781 18.4844Z" fill="#4B5563"/>
<path d="M9.83785 24.9052C9.77325 24.8243 9.66713 24.849 9.56436 24.8729C9.49259 24.8897 9.41126 24.9085 9.3221 24.9071C9.13111 24.9033 8.96938 24.8218 8.87855 24.6822C8.76025 24.5006 8.76709 24.2296 8.89772 23.9197C8.91529 23.8777 8.93605 23.8313 8.95865 23.7807C9.16684 23.3134 9.51546 22.5314 9.12411 21.7862C8.82953 21.2253 8.34914 20.8759 7.77154 20.8027C7.21704 20.7324 6.64616 20.9379 6.28202 21.3396C5.70755 21.9735 5.61776 22.8359 5.72887 23.1407C5.7696 23.2522 5.83325 23.2831 5.87955 23.2895C5.97726 23.3025 6.12179 23.2315 6.21234 22.9878C6.21882 22.9703 6.22743 22.9432 6.23824 22.9087C6.27863 22.7799 6.35374 22.5401 6.47679 22.3479C6.62514 22.1161 6.85622 21.9566 7.12743 21.8984C7.40375 21.8393 7.68616 21.892 7.92255 22.0468C8.32504 22.3101 8.48 22.8031 8.30818 23.2737C8.21938 23.5171 8.07508 23.9823 8.10695 24.3647C8.17125 25.1384 8.64717 25.4493 9.0748 25.4823C9.49056 25.4978 9.78112 25.2646 9.85464 25.0939C9.89803 24.9931 9.8614 24.9317 9.83786 24.9052" fill="#4B5563"/>
<path d="M13.7927 10.6939C15.1487 9.12699 16.818 7.76474 18.3133 6.99983C18.3651 6.97326 18.4199 7.02951 18.3919 7.08021C18.2731 7.29523 18.0446 7.75569 17.9721 8.10493C17.9608 8.15936 18.02 8.20029 18.0659 8.16899C18.9962 7.53488 20.6146 6.85539 22.0341 6.76804C22.095 6.76426 22.1245 6.84248 22.076 6.87971C21.8601 7.04535 21.624 7.27447 21.4515 7.50626C21.4222 7.54569 21.4499 7.6025 21.499 7.6028C22.4957 7.6099 23.9008 7.95871 24.8167 8.47241C24.8787 8.50709 24.8345 8.62708 24.7652 8.61121C23.3795 8.29371 21.1113 8.05273 18.7552 8.62739C16.6518 9.1405 15.0463 9.93255 13.8752 10.7844C13.8159 10.8275 13.7449 10.7493 13.7927 10.6939L13.7927 10.6939ZM20.5462 25.8755C20.5464 25.8758 20.5465 25.8764 20.5466 25.8764C20.5469 25.8768 20.547 25.8776 20.5475 25.8781C20.547 25.8772 20.5466 25.8764 20.5462 25.8755ZM26.1382 26.5356C26.1783 26.5187 26.2061 26.4729 26.2013 26.4274C26.1957 26.3713 26.1457 26.3305 26.0897 26.3363C26.0897 26.3363 23.1958 26.7646 20.4621 25.7639C20.7599 24.7961 21.5517 25.1455 22.7484 25.2422C24.9055 25.3708 26.8387 25.0556 28.2675 24.6454C29.5057 24.2903 31.1317 23.5897 32.3948 22.5928C32.8208 23.5286 32.9712 24.5584 32.9712 24.5584C32.9712 24.5584 33.301 24.4995 33.5765 24.669C33.837 24.8293 34.028 25.1624 33.8975 26.0237C33.6319 27.6329 32.9479 28.9388 31.7985 30.1403C31.0987 30.8935 30.2492 31.5483 29.2773 32.0245C28.7611 32.2956 28.2115 32.5302 27.6309 32.7197C23.2974 34.1351 18.8617 32.5791 17.4318 29.2378C17.3178 28.9865 17.2213 28.7236 17.1452 28.4485C16.5358 26.2466 17.0531 23.6049 18.6701 21.942C18.6703 21.9419 18.67 21.9412 18.6701 21.9412C18.7698 21.8353 18.8715 21.7106 18.8715 21.5537C18.8715 21.4224 18.7882 21.2839 18.7158 21.1857C18.15 20.3652 16.1904 18.9669 16.5837 16.261C16.8662 14.317 18.5663 12.9479 20.1514 13.029C20.2854 13.036 20.4196 13.0441 20.5532 13.052C21.2401 13.0928 21.8393 13.1809 22.4048 13.2045C23.3512 13.2454 24.2023 13.1078 25.2103 12.268C25.5503 11.9846 25.8229 11.739 26.2842 11.6608C26.3327 11.6525 26.4533 11.6092 26.6944 11.6207C26.9404 11.6337 27.1748 11.7013 27.3852 11.8415C28.1934 12.3792 28.3079 13.6815 28.3499 14.6343C28.3737 15.1781 28.4396 16.494 28.462 16.8717C28.5134 17.7353 28.7405 17.8571 29.1997 18.0084C29.4581 18.0935 29.6979 18.1568 30.0513 18.256C31.1209 18.5563 31.7552 18.8611 32.1548 19.2524C32.3933 19.497 32.5042 19.7569 32.5385 20.0047C32.6645 20.9249 31.824 22.0616 29.5989 23.0945C27.1666 24.2233 24.2158 24.5092 22.177 24.2822C22.0207 24.2649 21.4646 24.2018 21.4627 24.2015C19.8319 23.9819 18.9016 26.0895 19.8804 27.5334C20.5112 28.464 22.2294 29.0697 23.9484 29.0699C27.89 29.0704 30.9195 27.3872 32.0464 25.9336C32.0802 25.8902 32.0835 25.8854 32.1366 25.805C32.1921 25.7215 32.1464 25.6754 32.0773 25.7227C31.1565 26.3527 27.0669 28.8539 22.6925 28.1014C22.6925 28.1014 22.161 28.014 21.6758 27.8253C21.2902 27.6753 20.4832 27.304 20.3852 26.4761C23.9153 27.5678 26.1382 26.5357 26.1382 26.5357V26.5356ZM6.74808 18.1461C5.52036 18.3848 4.43825 19.0806 3.7766 20.0417C3.38107 19.7119 2.64427 19.0734 2.51417 18.8245C1.45773 16.8187 3.66705 12.9186 5.21043 10.7161C9.02467 5.27307 14.9986 1.1531 17.764 1.90066C18.2137 2.0279 19.7026 3.75422 19.7026 3.75422C19.7026 3.75422 16.9383 5.28805 14.3747 7.42603C10.9205 10.0857 8.31122 13.9514 6.74808 18.1461ZM8.81114 27.3508C8.62531 27.3825 8.43577 27.3952 8.2446 27.3905C6.39734 27.341 4.40194 25.6779 4.20365 23.7057C3.98449 21.5257 5.09835 19.8481 7.07051 19.4502C7.30629 19.4027 7.59123 19.3753 7.89848 19.3913C9.00347 19.4518 10.6318 20.3002 11.0038 22.7075C11.3333 24.8394 10.81 27.0099 8.81114 27.3508V27.3508ZM33.835 23.4906C33.8192 23.4347 33.7161 23.0579 33.5745 22.6039C33.4329 22.1496 33.2862 21.83 33.2862 21.83C33.8543 20.9794 33.8644 20.2188 33.7889 19.7879C33.7082 19.2538 33.4859 18.7987 33.0378 18.3283C32.5896 17.8579 31.6732 17.3761 30.3851 17.0144C30.2378 16.9731 29.752 16.8397 29.7093 16.8268C29.7059 16.799 29.6737 15.2335 29.6445 14.5616C29.6231 14.0758 29.5814 13.3174 29.3461 12.5704C29.0657 11.5593 28.577 10.6746 27.9672 10.1086C29.6503 8.364 30.7009 6.44208 30.6984 4.79333C30.6935 1.62261 26.7996 0.663279 22.0008 2.6503C21.9958 2.65236 20.9914 3.07828 20.9841 3.08184C20.9795 3.07754 19.146 1.27841 19.1184 1.25439C13.6472 -3.51778 -3.45899 15.4962 2.01019 20.1141L3.20542 21.1267C2.89539 21.9298 2.77356 22.85 2.87309 23.8396C3.00082 25.1105 3.65639 26.3288 4.71898 27.27C5.72768 28.1638 7.05389 28.7294 8.34088 28.7283C10.4692 33.6329 15.3321 36.6417 21.0338 36.8111C27.15 36.9927 32.2841 34.1228 34.4355 28.9675C34.5762 28.6057 35.1734 26.9755 35.1734 25.5364C35.1734 24.0901 34.3557 23.4906 33.835 23.4906Z" fill="#4B5563"/>
</svg>
