<svg width="123" height="22" viewBox="0 0 123 22" fill="none" xmlns="http://www.w3.org/2000/svg">
<path fill-rule="evenodd" clip-rule="evenodd" d="M15.9224 0.75L11.6699 11.8585L7.39212 0.75H0.078125V20.8829H5.34171V7.57293L10.5101 20.8829H12.8326L17.9728 7.57293V20.8829H23.2364V0.75H15.9224Z" fill="#6B7280"/>
<path fill-rule="evenodd" clip-rule="evenodd" d="M33.907 17.1384V15.8375C33.4193 15.1438 32.316 14.8108 31.2811 14.8108C30.0559 14.8108 28.9229 15.3564 28.9229 16.5019C28.9229 17.6474 30.0559 18.193 31.2811 18.193C32.316 18.193 33.4193 17.8307 33.907 17.137V17.1384ZM33.907 20.8784V19.4294C32.9895 20.5132 31.2172 21.2407 29.3184 21.2407C27.0539 21.2407 24.2422 19.6992 24.2422 16.4388C24.2422 12.91 27.0524 11.7352 29.3184 11.7352C31.2811 11.7352 33.0237 12.3659 33.907 13.4542V12.0051C33.907 10.7379 32.8096 9.8623 30.9094 9.8623C29.4403 9.8623 27.9713 10.4343 26.7803 11.4316L25.0377 8.20057C26.9364 6.6019 29.4745 5.9375 31.7346 5.9375C35.2838 5.9375 38.6234 7.23843 38.6234 11.7646V20.8799H33.907V20.8784Z" fill="#6B7280"/>
<path fill-rule="evenodd" clip-rule="evenodd" d="M39.2656 18.9776L41.2239 15.66C42.3271 16.6222 44.6794 17.6195 46.428 17.6195C47.8331 17.6195 48.4144 17.2235 48.4144 16.5928C48.4144 14.783 39.8187 16.6515 39.8187 10.7379C39.8187 8.17123 42.0833 5.9375 46.1484 5.9375C48.6583 5.9375 50.737 6.72217 52.3294 7.86763L50.5288 11.1632C49.6396 10.314 47.9565 9.5587 46.1841 9.5587C45.0808 9.5587 44.3478 9.98257 44.3478 10.556C44.3478 12.1547 52.9093 10.4974 52.9093 16.474C52.9093 19.246 50.4351 21.2407 46.2124 21.2407C43.5523 21.2407 40.8298 20.3636 39.2656 18.9776Z" fill="#6B7280"/>
<path fill-rule="evenodd" clip-rule="evenodd" d="M63.8364 20.8829V12.3953C63.8364 10.6207 62.8892 10.0472 61.3845 10.0472C60.0091 10.0472 59.0917 10.7981 58.5445 11.4625V20.8815H53.8281V0.75H58.5445V8.08333C59.4277 7.05667 61.1763 5.942 63.6505 5.942C67.0198 5.942 68.5468 7.81347 68.5468 10.5004V20.8829H63.8364Z" fill="#6B7280"/>
<path fill-rule="evenodd" clip-rule="evenodd" d="M79.1629 17.1384V15.8375C78.6737 15.1438 77.5719 14.8108 76.5311 14.8108C75.3059 14.8108 74.1729 15.3564 74.1729 16.5019C74.1729 17.6474 75.3059 18.193 76.5311 18.193C77.5719 18.193 78.6737 17.8307 79.1629 17.137V17.1384ZM79.1629 20.8784V19.4294C78.244 20.5132 76.4672 21.2407 74.5744 21.2407C72.3084 21.2407 69.4922 19.6992 69.4922 16.4388C69.4922 12.91 72.3084 11.7352 74.5744 11.7352C76.5311 11.7352 78.2737 12.3659 79.1629 13.4542V12.0051C79.1629 10.7379 78.0581 9.8623 76.1653 9.8623C74.6963 9.8623 73.2258 10.4343 72.0303 11.4316L70.2877 8.20057C72.1864 6.6019 74.7245 5.9375 76.9906 5.9375C80.5383 5.9375 83.8719 7.23843 83.8719 11.7646V20.8799H79.1629V20.8784Z" fill="#6B7280"/>
<path fill-rule="evenodd" clip-rule="evenodd" d="M92.9251 17.1415C94.7896 17.1415 96.2007 15.7775 96.2007 13.5775C96.2007 11.4068 94.7896 10.0428 92.9251 10.0428C91.914 10.0428 90.6947 10.5869 90.1089 11.3716V15.8405C90.6947 16.6252 91.9155 17.1415 92.9251 17.1415ZM85.3984 20.8815V0.75H90.1089V8.02467C91.1578 6.69296 92.7782 5.92228 94.4878 5.942C98.1872 5.942 101.005 8.8108 101.005 13.5775C101.005 18.5275 98.1292 21.2437 94.4878 21.2437C92.8329 21.2437 91.3341 20.5793 90.1089 19.1919V20.8829H85.3984V20.8815Z" fill="#6B7280"/>
<path fill-rule="evenodd" clip-rule="evenodd" d="M101.953 0.75H106.664V20.8829H101.953V0.75Z" fill="#6B7280"/>
<path fill-rule="evenodd" clip-rule="evenodd" d="M115.445 9.67897C113.393 9.67897 112.599 10.8875 112.412 11.942H118.505C118.379 10.9154 117.618 9.67897 115.445 9.67897ZM107.609 13.5744C107.609 9.3519 110.821 5.9375 115.445 5.9375C119.818 5.9375 123.002 9.1055 123.002 14.0555V15.1159H112.477C112.813 16.411 114.039 17.4992 116.177 17.4992C117.218 17.4992 118.931 17.046 119.79 16.2614L121.834 19.3091C120.37 20.6042 117.919 21.2407 115.659 21.2407C111.101 21.2407 107.609 18.3132 107.609 13.5744Z" fill="#6B7280"/>
</svg>
