<svg width="151" height="33" viewBox="0 0 151 33" fill="none" xmlns="http://www.w3.org/2000/svg">
<path d="M150.184 15.1273V12.4883H146.908V8.38672L146.798 8.42188L143.721 9.35938H143.663V12.4648H138.807V10.7305C138.807 9.93359 138.994 9.3125 139.346 8.90234C139.697 8.49219 140.213 8.28711 140.846 8.28711C141.314 8.28711 141.807 8.4043 142.275 8.61523L142.393 8.66211V5.89531L142.346 5.87187C141.9 5.71367 141.291 5.63164 140.541 5.63164C139.592 5.63164 138.725 5.84258 137.963 6.25742C137.201 6.65586 136.604 7.25352 136.193 8.00352C135.771 8.75352 135.561 9.6207 135.561 10.5699V12.4684H133.287V15.1051H135.572V26.2145H138.842V15.1051H143.702V22.1598C143.702 25.066 145.068 26.5426 147.78 26.5426C148.225 26.5426 148.694 26.4863 149.163 26.3902C149.649 26.2848 149.983 26.1793 150.17 26.0738L150.217 26.0504V23.3902L150.085 23.4793C149.909 23.5965 149.686 23.6984 149.429 23.7687C149.171 23.8391 148.948 23.8859 148.782 23.8859C148.149 23.8859 147.68 23.7219 147.392 23.3855C147.094 23.0516 146.946 22.4598 146.946 21.6277V15.1355H150.204L150.197 15.1191L150.184 15.1273ZM125.938 23.893C124.751 23.893 123.814 23.498 123.149 22.7211C122.489 21.9418 122.153 20.8297 122.153 19.4164C122.153 17.9586 122.489 16.8148 123.153 16.0227C123.814 15.2352 124.742 14.8344 125.914 14.8344C127.05 14.8344 127.941 15.2164 128.597 15.9711C129.254 16.7305 129.582 17.8625 129.582 19.3367C129.582 20.8297 129.277 21.977 128.668 22.7434C128.058 23.5051 127.144 23.8918 125.949 23.8918L125.938 23.893ZM126.089 12.1578C123.828 12.1578 122.025 12.8211 120.741 14.1313C119.464 15.4438 118.81 17.2555 118.81 19.5219C118.81 21.6781 119.443 23.4066 120.7 24.6664C121.954 25.932 123.661 26.5883 125.771 26.5883C127.964 26.5883 129.732 25.9086 131.011 24.5902C132.3 23.2637 132.94 21.466 132.94 19.2547C132.94 17.068 132.331 15.3219 131.124 14.075C129.917 12.8164 128.225 12.1813 126.085 12.1813L126.089 12.1578ZM113.522 12.1813C111.975 12.1813 110.705 12.575 109.725 13.3531C108.75 14.1359 108.249 15.1578 108.249 16.4C108.249 17.0492 108.359 17.6187 108.572 18.1109C108.783 18.5961 109.111 19.025 109.55 19.3859C109.983 19.7375 110.651 20.1125 111.542 20.4969C112.292 20.8016 112.843 21.0594 113.199 21.2703C113.55 21.466 113.799 21.6688 113.925 21.8645C114.066 22.052 114.136 22.3215 114.136 22.6379C114.136 23.5684 113.447 24.016 112.027 24.016C111.497 24.016 110.895 23.9059 110.236 23.6879C109.572 23.4723 108.955 23.1605 108.4 22.7598L108.259 22.666V25.8066L108.306 25.8301C108.775 26.041 109.353 26.2285 110.041 26.3691C110.726 26.5215 111.353 26.5918 111.892 26.5918C113.568 26.5918 114.916 26.1934 115.9 25.4152C116.884 24.6277 117.388 23.5754 117.388 22.2934C117.388 21.3676 117.119 20.5707 116.586 19.932C116.058 19.2922 115.144 18.7086 113.863 18.193C112.852 17.7828 112.199 17.443 111.918 17.1852C111.66 16.932 111.539 16.5758 111.539 16.1258C111.539 15.7273 111.704 15.4062 112.037 15.1484C112.373 14.8848 112.841 14.7535 113.427 14.7535C113.972 14.7535 114.529 14.8355 115.091 15.0055C115.642 15.1789 116.129 15.4039 116.533 15.6805L116.67 15.7742V12.7742L116.623 12.7508C116.242 12.5867 115.748 12.4496 115.146 12.3406C114.549 12.227 114.006 12.1766 113.535 12.1766L113.522 12.1813ZM99.707 23.907C98.5234 23.907 97.5859 23.5156 96.9297 22.7352C96.2617 21.9617 95.9277 20.8484 95.9277 19.4305C95.9277 17.9773 96.2629 16.8289 96.9285 16.0402C97.5848 15.2527 98.5152 14.852 99.6824 14.852C100.819 14.852 101.721 15.234 102.372 15.9887C103.019 16.7504 103.356 17.8824 103.356 19.3566C103.356 20.8473 103.04 21.9934 102.43 22.7609C101.833 23.5227 100.919 23.9094 99.7117 23.9094L99.707 23.907ZM99.8758 12.1789C97.6023 12.1789 95.7977 12.8398 94.5203 14.15C93.2348 15.4625 92.5867 17.273 92.5867 19.5406C92.5867 21.6969 93.2195 23.4242 94.4652 24.6852C95.7215 25.9508 97.4254 26.607 99.5336 26.607C101.737 26.607 103.495 25.9273 104.784 24.6031C106.066 23.2742 106.717 21.4766 106.717 19.2652C106.717 17.0773 106.108 15.3313 104.912 14.0855C103.705 12.8258 102.011 12.1906 99.8734 12.1906L99.8758 12.1789ZM87.6414 14.8953V12.5047H84.407V26.2508H87.6414V19.2195C87.6414 18.0242 87.9109 17.0398 88.4465 16.2957C88.9738 15.5551 89.677 15.1941 90.5324 15.1941C90.8254 15.1941 91.1535 15.241 91.5145 15.3348C91.866 15.4285 92.1191 15.5223 92.2645 15.6395L92.4051 15.7332V12.4754L92.3535 12.452C92.0488 12.316 91.627 12.2504 91.0879 12.2504C90.2793 12.2504 89.5527 12.5129 88.9293 13.0238C88.3785 13.4785 87.9836 14.0973 87.6812 14.8707H87.6227L87.652 14.8941L87.6414 14.8953ZM78.5945 12.1766C77.1062 12.1766 75.782 12.4871 74.657 13.1141C73.5227 13.7469 72.6531 14.6375 72.0555 15.7859C71.4695 16.9227 71.1648 18.2527 71.1648 19.7352C71.1648 21.0359 71.4602 22.2242 72.032 23.2766C72.6109 24.3312 73.4266 25.1516 74.4578 25.7258C75.482 26.2918 76.6727 26.5812 77.9898 26.5812C79.5273 26.5812 80.8375 26.2766 81.8922 25.6672L81.9391 25.6437V22.6766L81.7984 22.7738C81.3215 23.1254 80.7906 23.4008 80.2164 23.6C79.6445 23.7992 79.1242 23.9 78.6695 23.9C77.3969 23.9 76.3797 23.5016 75.6391 22.7223C74.8891 21.9254 74.5141 20.8238 74.5141 19.441C74.5141 18.0348 74.9125 16.9098 75.6812 16.0895C76.4547 15.2457 77.4719 14.8238 78.7164 14.8238C79.7711 14.8238 80.8105 15.1871 81.7902 15.8902L81.9309 15.984V12.8668L81.8922 12.8434C81.523 12.6324 81.0215 12.4684 80.3922 12.3348C79.7758 12.2059 79.1687 12.1426 78.5898 12.1426L78.5945 12.1766ZM68.9453 12.4707H65.7156V26.2285H68.95V12.4707H68.9453ZM67.3516 6.62305C66.8195 6.62305 66.3555 6.80352 65.9734 7.16211C65.5914 7.52305 65.3969 7.97539 65.3969 8.50977C65.3969 9.03711 65.5926 9.48242 65.9711 9.83398C66.3461 10.1855 66.8148 10.359 67.3539 10.359C67.893 10.359 68.3617 10.1832 68.7426 9.83164C69.127 9.48008 69.3215 9.03477 69.3215 8.50742C69.3215 7.9918 69.134 7.54648 68.759 7.17148C68.384 6.81992 67.9152 6.63242 67.3527 6.63242L67.3516 6.62305ZM59.2785 11.4723V26.2379H62.5832V7.06719H58.0129L52.2203 21.3148L46.5836 7.06484H41.8328V26.2508H44.9383V11.491H45.0438L50.9969 26.2543H53.3348L59.1941 11.4922H59.3055L59.2879 11.4852L59.2785 11.4723ZM17.009 17.4371H32.2199V32.6609H16.9855L17.0066 17.4477L17.009 17.4371ZM0.207813 17.4465H15.4164V32.6609H0.203125L0.207813 17.4477V17.4465ZM17.0102 0.645313H32.2211V15.8562H17.0008L17.0102 0.640625V0.645313ZM0.207813 0.642969H15.4164V15.8562H0.203125L0.207813 0.640625V0.642969Z" fill="#4B5563"/>
</svg>
