<svg width="74" height="28" viewBox="0 0 74 28" fill="none" xmlns="http://www.w3.org/2000/svg">
<path fill-rule="evenodd" clip-rule="evenodd" d="M8.84176 27.489C6.66721 27.3994 4.88714 26.7816 3.49593 25.6344C3.2306 25.4153 2.59747 24.7582 2.38549 24.4811C1.82115 23.7447 1.43649 23.0281 1.181 22.233C0.393441 19.7856 0.799151 16.5739 2.34057 13.0493C3.66018 10.0317 5.69575 7.03881 9.24887 2.89375C9.7711 2.2838 11.3294 0.5 11.3406 0.5C11.3434 0.5 11.2592 0.652678 11.1525 0.838594C10.2288 2.44421 9.43839 4.33547 9.00741 5.97278C8.31532 8.59999 8.39955 10.8546 9.25168 12.6028C9.83989 13.8073 10.8478 14.8505 11.9821 15.4271C13.9672 16.4364 16.8731 16.5198 20.4206 15.6714C20.6649 15.6127 32.7716 12.2774 47.3253 8.25945C61.8789 4.24116 73.7877 0.9561 73.7891 0.9588C73.7933 0.962282 39.979 15.9787 22.4239 23.7691C19.6443 25.0025 18.9017 25.314 17.5947 25.7902C14.2536 27.0077 11.2606 27.5888 8.84176 27.489Z" fill="#6B7280"/>
</svg>
