<svg width="49" height="136" viewBox="0 0 49 136" fill="none" xmlns="http://www.w3.org/2000/svg">
<path d="M19.725 1.55608L2.79317 15.1297C0.887419 16.6461 -0.334254 19.8499 0.0811018 22.2467L3.33061 41.7145C3.917 45.1874 7.23986 48 10.7582 48H38.1228C41.6167 48 44.964 45.163 45.5503 41.7145L48.7999 22.2467C49.1908 19.8499 47.9691 16.6461 46.0878 15.1297L29.156 1.58056C26.5417 -0.522744 22.3149 -0.522768 19.725 1.55608Z" fill="#EBEBFF"/>
<path d="M29.1327 33V31H23.9927L21.9927 31.2L23.5527 30.04L25.4127 28.4C26.8327 27.22 28.7527 25.36 28.7527 23.2C28.7527 21 27.4327 19.4 24.7327 19.4C21.6527 19.4 19.4727 21.36 19.5327 24.04L21.4327 25.4C21.3127 22.82 22.5527 21.56 24.5327 21.56C25.8327 21.56 26.3927 22.38 26.3927 23.34C26.3927 24.6 25.4727 25.62 24.1727 26.88L19.5527 31.28V33H29.1327Z" fill="#6666FF"/>
<line x1="25.4375" y1="64" x2="25.4375" y2="136" stroke="#6666FF" stroke-width="2"/>
</svg>
