<svg width="53" height="38" viewBox="0 0 53 38" fill="none" xmlns="http://www.w3.org/2000/svg">
<path d="M22.1078 4.6555C23.796 2.89944 26.1417 1.80933 28.7418 1.80933C32.1946 1.80933 35.2062 3.73505 36.8095 6.59395C38.2439 5.95215 39.7979 5.62111 41.3693 5.62261C47.5961 5.62261 52.6437 10.7169 52.6437 16.9946C52.6437 23.2765 47.5961 28.3708 41.3693 28.3708C40.6101 28.3708 39.8678 28.2944 39.1467 28.1502C37.7342 30.6698 35.0407 32.3707 31.9528 32.3707C30.6591 32.3707 29.4375 32.0738 28.3474 31.5393C26.9137 34.9072 23.5797 37.2698 19.6901 37.2698C15.6393 37.2698 12.1908 34.7079 10.8674 31.1152C10.2905 31.2382 9.68819 31.3018 9.07314 31.3018C4.25034 31.3018 0.34375 27.3528 0.34375 22.4833C0.34375 19.2172 2.09981 16.3668 4.70845 14.844C4.15476 13.5714 3.87026 12.198 3.87283 10.8102C3.87283 5.20692 8.41992 0.664071 14.0317 0.664071C17.3232 0.659829 20.2542 2.22925 22.1078 4.6555Z" fill="#4B5563"/>
<path d="M7.77784 20.0832C7.7439 20.168 7.79056 20.185 7.79905 20.202C7.8966 20.2741 7.9984 20.325 8.09596 20.3844C8.63042 20.6686 9.13093 20.7492 9.66115 20.7492C10.7343 20.7492 11.4002 20.1765 11.4002 19.2603V19.2434C11.4002 18.395 10.6495 18.0854 9.9411 17.8648L9.84778 17.8351C9.31757 17.6612 8.85523 17.5127 8.85523 17.1649V17.148C8.85523 16.8468 9.12245 16.6262 9.53814 16.6262C10.0005 16.6262 10.5477 16.7789 10.8997 16.9741C10.8997 16.9741 11.0015 17.0419 11.0397 16.9401C11.0609 16.885 11.2391 16.4057 11.256 16.3548C11.2772 16.2996 11.2391 16.2572 11.2051 16.236C10.8022 15.99 10.2465 15.8246 9.66963 15.8246H9.56359C8.58376 15.8246 7.8966 16.4184 7.8966 17.2667V17.2837C7.8966 18.1787 8.65162 18.4714 9.35999 18.675L9.47451 18.7089C9.992 18.8658 10.4374 19.0058 10.4374 19.3664V19.3833C10.4374 19.7142 10.1489 19.9644 9.68235 19.9644C9.49996 19.9644 8.92309 19.9602 8.29956 19.5657C8.22321 19.5233 8.1808 19.4894 8.12141 19.4554C8.09172 19.4342 8.01537 19.4045 7.98144 19.5021L7.77784 20.0832ZM23.4848 20.0832C23.4509 20.168 23.4975 20.185 23.506 20.202C23.6036 20.2741 23.7054 20.325 23.8029 20.3844C24.3374 20.6686 24.8379 20.7492 25.3681 20.7492C26.4413 20.7492 27.1072 20.1765 27.1072 19.2603V19.2434C27.1072 18.395 26.3564 18.0854 25.6481 17.8648L25.5547 17.8351C25.0245 17.6612 24.5622 17.5127 24.5622 17.1649V17.148C24.5622 16.8468 24.8294 16.6262 25.2451 16.6262C25.7074 16.6262 26.2546 16.7789 26.6067 16.9741C26.6067 16.9741 26.7085 17.0419 26.7467 16.9401C26.7679 16.885 26.946 16.4057 26.963 16.3548C26.9842 16.2996 26.946 16.2572 26.9121 16.236C26.5091 15.99 25.9535 15.8246 25.3766 15.8246H25.2706C24.2907 15.8246 23.6036 16.4184 23.6036 17.2667V17.2837C23.6036 18.1787 24.3586 18.4714 25.067 18.675L25.1815 18.7089C25.699 18.8658 26.1443 19.0058 26.1443 19.3664V19.3833C26.1443 19.7142 25.8559 19.9644 25.3893 19.9644C25.2069 19.9644 24.6301 19.9602 24.0065 19.5657C23.9302 19.5233 23.8878 19.4894 23.8284 19.4554C23.8072 19.4427 23.7181 19.4088 23.6884 19.5021L23.4848 20.0832ZM34.2035 18.2847C34.2035 18.8022 34.106 19.2137 33.9151 19.5021C33.7285 19.7863 33.44 19.9263 33.0456 19.9263C32.6468 19.9263 32.3627 19.7863 32.176 19.5021C31.9894 19.2137 31.8918 18.8022 31.8918 18.2847C31.8918 17.7672 31.9851 17.36 32.176 17.0716C32.3627 16.7874 32.6468 16.6517 33.0456 16.6517C33.4443 16.6517 33.7285 16.7874 33.9194 17.0716C34.106 17.3558 34.2035 17.763 34.2035 18.2847ZM35.0985 17.3219C35.0095 17.025 34.8737 16.762 34.6913 16.5456C34.5048 16.3219 34.2698 16.1435 34.0042 16.0239C33.7327 15.8967 33.4061 15.833 33.0456 15.833C32.6808 15.833 32.3584 15.8967 32.0869 16.0239C31.8112 16.1512 31.5822 16.3293 31.3998 16.5456C31.2174 16.7662 31.0817 17.025 30.9926 17.3219C30.9035 17.6188 30.8611 17.9412 30.8611 18.2847C30.8611 18.6283 30.9035 18.9507 30.9926 19.2476C31.0817 19.5445 31.2174 19.8075 31.3998 20.0238C31.5822 20.2444 31.8155 20.4183 32.0869 20.5413C32.3627 20.6643 32.685 20.7279 33.0456 20.7279C33.4103 20.7279 33.7327 20.6643 34.0042 20.5413C34.2757 20.4183 34.5089 20.2401 34.6913 20.0238C34.8737 19.8075 35.0095 19.5445 35.0985 19.2476C35.1876 18.9507 35.23 18.6283 35.23 18.2847C35.23 17.9412 35.1876 17.6145 35.0985 17.3219ZM42.4536 19.7863C42.4239 19.6972 42.3391 19.7311 42.3391 19.7311C42.2076 19.782 42.0719 19.8287 41.9234 19.8499C41.775 19.8711 41.6095 19.8838 41.4314 19.8838C40.9987 19.8838 40.6552 19.7566 40.4049 19.5021C40.1589 19.2476 40.0189 18.8362 40.0189 18.2762C40.0189 17.7672 40.1419 17.3855 40.3625 17.0971C40.5788 16.8086 40.9139 16.6602 41.355 16.6602C41.7241 16.6602 42.0083 16.7026 42.3009 16.7959C42.3009 16.7959 42.373 16.8256 42.407 16.7323C42.4833 16.5159 42.5427 16.359 42.6275 16.1215C42.653 16.0536 42.5936 16.0239 42.5724 16.0154C42.4579 15.9688 42.1822 15.8967 41.9743 15.867C41.7792 15.8373 41.5544 15.8203 41.3041 15.8203C40.9266 15.8203 40.5915 15.8839 40.3073 16.0112C40.0231 16.1384 39.7771 16.3123 39.5862 16.5329C39.3903 16.7599 39.2418 17.0239 39.1494 17.3091C39.0518 17.6061 39.0051 17.9284 39.0051 18.272C39.0051 19.0143 39.2045 19.6166 39.6032 20.0535C39.9977 20.4947 40.5958 20.7195 41.372 20.7195C41.8301 20.7195 42.3009 20.6261 42.6403 20.4947C42.6403 20.4947 42.7039 20.465 42.6784 20.3886L42.4536 19.7863ZM44.0231 17.7842C44.0655 17.4958 44.1461 17.254 44.2691 17.0674C44.4557 16.7832 44.7357 16.6262 45.1344 16.6262C45.5331 16.6262 45.7961 16.7832 45.9827 17.0674C46.11 17.254 46.1609 17.5043 46.1821 17.7842H44.0231ZM47.0346 17.1522C46.9583 16.8638 46.7717 16.5753 46.6444 16.4438C46.4493 16.2318 46.2584 16.0875 46.0675 16.0069C45.7925 15.8907 45.4966 15.8315 45.198 15.833C44.8205 15.833 44.4769 15.8967 44.197 16.0282C43.917 16.1596 43.6837 16.3378 43.4971 16.5626C43.3147 16.7832 43.1747 17.0504 43.0856 17.3473C42.9966 17.6442 42.9541 17.9708 42.9541 18.3144C42.9541 18.6622 43.0008 18.9889 43.0899 19.2815C43.1832 19.5784 43.3317 19.8372 43.531 20.0535C43.7304 20.2698 43.9849 20.4395 44.2945 20.5583C44.5999 20.677 44.9689 20.7364 45.3931 20.7364C46.2669 20.7322 46.7292 20.5371 46.9201 20.4353C46.9541 20.4183 46.9837 20.3844 46.9456 20.291L46.7462 19.7354C46.7165 19.6548 46.6317 19.6845 46.6317 19.6845C46.4154 19.7651 46.1057 19.9093 45.3889 19.9093C44.918 19.9093 44.5702 19.7693 44.3539 19.553C44.1291 19.3324 44.0188 19.0058 44.0018 18.5435L47.0346 18.5477C47.0346 18.5477 47.1152 18.5477 47.1237 18.4671C47.128 18.4247 47.2298 17.8351 47.0346 17.1522ZM19.7436 17.7842C19.7861 17.4958 19.8666 17.254 19.9897 17.0674C20.1763 16.7832 20.4562 16.6262 20.855 16.6262C21.2537 16.6262 21.5167 16.7832 21.7033 17.0674C21.8263 17.254 21.8814 17.5043 21.9027 17.7842H19.7436ZM22.7595 17.1522C22.6831 16.8638 22.4965 16.5753 22.3735 16.4438C22.1784 16.2318 21.9875 16.0875 21.7966 16.0069C21.5215 15.8907 21.2257 15.8315 20.9271 15.833C20.5496 15.833 20.206 15.8967 19.926 16.0282C19.6461 16.1596 19.4128 16.3378 19.2261 16.5626C19.0438 16.7832 18.9038 17.0504 18.8147 17.3473C18.7256 17.6442 18.6832 17.9708 18.6832 18.3144C18.6832 18.6622 18.7299 18.9889 18.8189 19.2815C18.9123 19.5784 19.0607 19.8372 19.2601 20.0535C19.4594 20.2698 19.7139 20.4395 20.0236 20.5583C20.329 20.677 20.698 20.7364 21.1222 20.7364C21.996 20.7322 22.4583 20.5371 22.6492 20.4353C22.6831 20.4183 22.7128 20.3844 22.6746 20.291L22.4753 19.7354C22.4456 19.6548 22.3608 19.6845 22.3608 19.6845C22.1444 19.7651 21.8348 19.9093 21.1179 19.9093C20.6471 19.9093 20.2993 19.7693 20.083 19.553C19.8582 19.3324 19.7479 19.0058 19.7309 18.5435L22.7637 18.5477C22.7637 18.5477 22.8443 18.5477 22.8528 18.4671C22.8528 18.4247 22.9546 17.8351 22.7595 17.1522ZM13.1902 19.7693C13.0715 19.676 13.0545 19.6506 13.0163 19.5912C12.9569 19.4979 12.9272 19.3664 12.9272 19.1967C12.9272 18.9295 13.0163 18.7386 13.1987 18.6113C13.1945 18.6113 13.4575 18.3823 14.0767 18.3908C14.5094 18.395 14.8996 18.4629 14.8996 18.4629V19.8414C14.8996 19.8414 14.5136 19.922 14.081 19.9517C13.4617 19.9856 13.1902 19.7693 13.1902 19.7693ZM14.3991 17.64C14.2761 17.6315 14.1149 17.6273 13.924 17.6273C13.6653 17.6273 13.415 17.6612 13.1775 17.7248C12.94 17.7885 12.7279 17.886 12.5455 18.0175C12.3631 18.149 12.2146 18.3187 12.1044 18.518C11.9983 18.7174 11.9432 18.9549 11.9432 19.2179C11.9432 19.4851 11.9898 19.7184 12.0831 19.9093C12.1765 20.1002 12.308 20.2614 12.4776 20.3844C12.6473 20.5074 12.8551 20.5965 13.0969 20.6516C13.3344 20.7067 13.6059 20.7322 13.8986 20.7322C14.2082 20.7322 14.5179 20.7067 14.819 20.6558C15.116 20.6049 15.4807 20.5328 15.5825 20.5074C15.6843 20.4819 15.7946 20.4522 15.7946 20.4522C15.871 20.4353 15.8625 20.3547 15.8625 20.3547V17.5806C15.8625 16.9741 15.7013 16.5202 15.3789 16.2445C15.0608 15.9645 14.5942 15.8246 13.9877 15.8246C13.7586 15.8246 13.3938 15.8542 13.1775 15.9009C13.1775 15.9009 12.5158 16.0282 12.2443 16.2402C12.2443 16.2402 12.1849 16.2784 12.2189 16.359L12.4352 16.9359C12.4607 17.0122 12.5328 16.9868 12.5328 16.9868C12.5328 16.9868 12.554 16.9783 12.5837 16.9613C13.169 16.6432 13.9028 16.6517 13.9028 16.6517C14.2294 16.6517 14.4839 16.7153 14.6536 16.8468C14.819 16.9741 14.9039 17.1649 14.9039 17.5679V17.6951C14.6366 17.6612 14.3991 17.64 14.3991 17.64ZM38.8482 16.0791C38.8565 16.0582 38.8562 16.035 38.8475 16.0143C38.8388 15.9937 38.8222 15.9773 38.8015 15.9688C38.7506 15.9476 38.4919 15.8924 38.2925 15.8797C37.9108 15.8585 37.6987 15.9221 37.5121 16.0069C37.3254 16.0918 37.1176 16.2275 36.9988 16.3845V16.0154C36.9988 15.9645 36.9606 15.9221 36.9097 15.9221H36.1335C36.0826 15.9221 36.0444 15.9645 36.0444 16.0154V20.5371C36.0444 20.588 36.0869 20.6304 36.1378 20.6304H36.9352C36.9861 20.6304 37.0285 20.588 37.0285 20.5371V18.2762C37.0285 17.9751 37.0624 17.6697 37.1303 17.4788C37.1939 17.2922 37.2873 17.1395 37.3975 17.0334C37.5078 16.9274 37.6351 16.851 37.7708 16.8086C37.9108 16.7662 38.0677 16.7492 38.178 16.7492C38.335 16.7492 38.5131 16.7917 38.5131 16.7917C38.5725 16.8001 38.6022 16.762 38.6234 16.7111C38.67 16.5753 38.8185 16.1596 38.8482 16.0791Z" fill="white"/>
<path d="M31.3787 13.9846C31.2811 13.9549 31.192 13.9337 31.0775 13.9125C30.963 13.8913 30.823 13.8828 30.6661 13.8828C30.1189 13.8828 29.6862 14.0398 29.3808 14.3452C29.0797 14.6506 28.8761 15.1129 28.77 15.7195L28.7319 15.9231H28.0447C28.0447 15.9231 27.9599 15.9188 27.9429 16.0121L27.8284 16.6442C27.8199 16.7035 27.8454 16.7417 27.9259 16.7417H28.5961L27.9175 20.5338C27.8666 20.8392 27.8029 21.0894 27.7351 21.2803C27.6672 21.4669 27.6036 21.6069 27.523 21.713C27.4466 21.8105 27.3745 21.8826 27.2473 21.9251C27.1412 21.959 27.0225 21.976 26.891 21.976C26.8189 21.976 26.7213 21.9632 26.6492 21.9505C26.5771 21.9378 26.5389 21.9208 26.4838 21.8996C26.4838 21.8996 26.4074 21.8699 26.3735 21.9463C26.348 22.0099 26.1699 22.5019 26.1487 22.5613C26.1275 22.6207 26.1572 22.6673 26.1953 22.6843C26.2844 22.714 26.3523 22.7352 26.471 22.7649C26.6407 22.8031 26.7807 22.8073 26.9164 22.8073C27.1964 22.8073 27.4509 22.7691 27.6587 22.6928C27.8708 22.6164 28.0532 22.4807 28.2186 22.3026C28.3968 22.1074 28.5071 21.9038 28.6131 21.6239C28.7191 21.3482 28.8082 21.0046 28.8803 20.6059L29.5632 16.7417H30.56C30.56 16.7417 30.6449 16.746 30.6618 16.6526L30.7764 16.0206C30.7848 15.9612 30.7594 15.9231 30.6788 15.9231H29.7074C29.7117 15.9019 29.7584 15.5583 29.8686 15.2402C29.9153 15.1044 30.0044 14.9941 30.0807 14.9178C30.1571 14.8414 30.2419 14.7905 30.3352 14.7608C30.4328 14.7311 30.5388 14.7142 30.6618 14.7142C30.7509 14.7142 30.8442 14.7227 30.9121 14.7396C31.0054 14.7608 31.0436 14.7693 31.069 14.7778C31.1666 14.8075 31.1836 14.7778 31.2005 14.7311L31.4338 14.0949C31.4593 14.0228 31.3999 13.9931 31.3787 13.9846ZM17.8392 20.538C17.8392 20.5889 17.801 20.6313 17.7501 20.6313H16.9442C16.8933 20.6313 16.8594 20.5889 16.8594 20.538V14.0694C16.8594 14.0185 16.8933 13.9761 16.9442 13.9761H17.7501C17.801 13.9761 17.8392 14.0185 17.8392 14.0694V20.538Z" fill="white"/>
</svg>
