<svg width="123" height="32" viewBox="0 0 123 32" fill="none" xmlns="http://www.w3.org/2000/svg">
<path d="M39.3906 24.8377L40.9145 21.2984C42.5612 22.5274 44.7487 23.1664 46.9116 23.1664C48.5092 23.1664 49.5169 22.5519 49.5169 21.618C49.4923 19.0127 39.9559 21.0527 39.8822 14.5148C39.8576 11.1968 42.807 8.64062 46.9853 8.64062C49.4677 8.64062 51.9501 9.25508 53.7198 10.656L52.2942 14.2691C50.6721 13.2368 48.6566 12.4994 46.7395 12.4994C45.4369 12.4994 44.5766 13.1139 44.5766 13.9004C44.6012 16.4565 54.2113 15.0556 54.3096 21.2984C54.3096 24.6902 51.434 27.0743 47.3048 27.0743C44.2817 27.0743 41.5044 26.3616 39.3906 24.8377Z" fill="#4B5563"/>
<path d="M97.8792 20.0204C97.1173 21.3476 95.6917 22.257 94.045 22.257C91.6117 22.257 89.6455 20.2907 89.6455 17.8575C89.6455 15.4242 91.6117 13.458 94.045 13.458C95.6917 13.458 97.1173 14.3674 97.8792 15.6946L102.082 13.3597C100.509 10.5577 97.4859 8.64062 94.045 8.64062C88.9573 8.64062 84.8281 12.7698 84.8281 17.8575C84.8281 22.9452 88.9573 27.0743 94.045 27.0743C97.5105 27.0743 100.509 25.1818 102.082 22.3553L97.8792 20.0204Z" fill="#4B5563"/>
<path d="M61.666 1H56.4062V26.7335H61.666V1Z" fill="#4B5563"/>
<path d="M104.125 1V26.7335H109.385V19.0159L115.628 26.7335H122.362L114.423 17.5658L121.772 9.01252H115.333L109.385 16.1156V1H104.125Z" fill="#4B5563"/>
<path d="M77.3372 20.0695C76.5753 21.323 75.0023 22.257 73.2327 22.257C70.7994 22.257 68.8331 20.2907 68.8331 17.8575C68.8331 15.4242 70.7994 13.458 73.2327 13.458C75.0023 13.458 76.5753 14.4411 77.3372 15.7192V20.0695ZM77.3372 9.0093V11.0985C76.477 9.64833 74.3387 8.64062 72.1021 8.64062C67.4813 8.64062 63.8438 12.7206 63.8438 17.8329C63.8438 22.9452 67.4813 27.0743 72.1021 27.0743C74.3387 27.0743 76.477 26.0666 77.3372 24.6165V26.7057H82.597V9.0093H77.3372Z" fill="#4B5563"/>
<path d="M6.87148 20.049C6.87148 21.8432 5.42136 23.2934 3.62715 23.2934C1.83293 23.2934 0.382812 21.8432 0.382812 20.049C0.382812 18.2548 1.83293 16.8047 3.62715 16.8047H6.87148V20.049Z" fill="#4B5563"/>
<path d="M8.49219 20.049C8.49219 18.2548 9.94231 16.8047 11.7365 16.8047C13.5307 16.8047 14.9809 18.2548 14.9809 20.049V28.1599C14.9809 29.9541 13.5307 31.4042 11.7365 31.4042C9.94231 31.4042 8.49219 29.9541 8.49219 28.1599V20.049Z" fill="#4B5563"/>
<path d="M11.7365 7.01992C9.94231 7.01992 8.49219 5.5698 8.49219 3.77558C8.49219 1.98137 9.94231 0.53125 11.7365 0.53125C13.5307 0.53125 14.9809 1.98137 14.9809 3.77558V7.01992H11.7365Z" fill="#4B5563"/>
<path d="M11.7313 8.66406C13.5255 8.66406 14.9756 10.1142 14.9756 11.9084C14.9756 13.7026 13.5255 15.1527 11.7313 15.1527H3.5959C1.80168 15.1527 0.351562 13.7026 0.351562 11.9084C0.351562 10.1142 1.80168 8.66406 3.5959 8.66406H11.7313Z" fill="#4B5563"/>
<path d="M24.7344 11.9084C24.7344 10.1142 26.1845 8.66406 27.9787 8.66406C29.7729 8.66406 31.223 10.1142 31.223 11.9084C31.223 13.7026 29.7729 15.1527 27.9787 15.1527H24.7344V11.9084Z" fill="#4B5563"/>
<path d="M23.1137 11.911C23.1137 13.7052 21.6636 15.1553 19.8693 15.1553C18.0751 15.1553 16.625 13.7052 16.625 11.911V3.77558C16.625 1.98137 18.0751 0.53125 19.8693 0.53125C21.6636 0.53125 23.1137 1.98137 23.1137 3.77558V11.911Z" fill="#4B5563"/>
<path d="M19.8693 24.9141C21.6636 24.9141 23.1137 26.3642 23.1137 28.1584C23.1137 29.9526 21.6636 31.4027 19.8693 31.4027C18.0751 31.4027 16.625 29.9526 16.625 28.1584V24.9141H19.8693Z" fill="#4B5563"/>
<path d="M19.8693 23.2934C18.0751 23.2934 16.625 21.8432 16.625 20.049C16.625 18.2548 18.0751 16.8047 19.8693 16.8047H28.0047C29.799 16.8047 31.2491 18.2548 31.2491 20.049C31.2491 21.8432 29.799 23.2934 28.0047 23.2934H19.8693Z" fill="#4B5563"/>
</svg>
