<svg width="125" height="38" viewBox="0 0 125 38" fill="none" xmlns="http://www.w3.org/2000/svg">
<path d="M50.9901 17.1603C54.8848 18.1071 56.4725 19.5773 56.4725 22.2353C56.4725 25.3802 54.0697 27.4125 50.3509 27.4125C47.7223 27.4125 45.2854 26.4787 43.3048 24.7104C43.2641 24.6741 43.2392 24.6233 43.2355 24.5689C43.2318 24.5145 43.2495 24.4608 43.2848 24.4193L45.0349 22.3376C45.0527 22.3163 45.0746 22.2988 45.0993 22.2861C45.124 22.2733 45.151 22.2657 45.1787 22.2635C45.2064 22.2613 45.2343 22.2646 45.2606 22.2733C45.287 22.282 45.3114 22.2958 45.3324 22.3141C47.0348 23.7877 48.5567 24.4158 50.422 24.4158C52.1021 24.4158 53.1459 23.6883 53.1459 22.5193C53.1459 21.4637 52.6296 20.8739 49.5705 20.1694C45.9775 19.3003 43.8976 18.1759 43.8976 14.9975C43.8976 12.0337 46.3086 9.96374 49.7593 9.96374C52.1056 9.96374 54.115 10.6588 55.8986 12.0896C55.9844 12.1589 56.0021 12.2836 55.938 12.3742L54.3767 14.5735C54.3604 14.5961 54.3397 14.6153 54.316 14.6299C54.2922 14.6445 54.2658 14.6542 54.2383 14.6586C54.2107 14.663 54.1826 14.6619 54.1555 14.6553C54.1284 14.6488 54.1028 14.637 54.0803 14.6205C52.5819 13.5032 51.153 12.9611 49.7111 12.9611C48.2245 12.9611 47.2248 13.6755 47.2248 14.737C47.2248 15.8602 47.7952 16.3953 50.9907 17.1586L50.9901 17.1603ZM64.8858 14.0084C63.2745 14.0084 61.9526 14.6435 60.8617 15.9431V14.4788C60.8617 14.4233 60.8397 14.37 60.8004 14.3308C60.7612 14.2915 60.7079 14.2695 60.6524 14.2695H57.7909C57.7354 14.2695 57.6822 14.2915 57.6429 14.3308C57.6036 14.37 57.5816 14.4233 57.5816 14.4788V30.7503C57.5816 30.865 57.6757 30.959 57.7909 30.959H60.653C60.7688 30.959 60.8629 30.865 60.8629 30.7497V25.613C61.9532 26.8362 63.2757 27.4348 64.8876 27.4348C67.8837 27.4348 70.9151 25.1297 70.9151 20.7216C70.9151 16.3135 67.8819 14.0084 64.8858 14.0084ZM67.585 20.7222C67.585 22.9662 66.203 24.5328 64.2237 24.5328C62.2654 24.5328 60.7894 22.8951 60.7894 20.7222C60.7894 18.5493 62.2654 16.9116 64.2237 16.9116C66.1713 16.9116 67.5856 18.514 67.5856 20.7222H67.585ZM78.6857 14.0084C74.828 14.0084 71.8066 16.978 71.8066 20.771C71.8066 24.5216 74.8069 27.4601 78.6375 27.4601C82.5086 27.4601 85.5394 24.4999 85.5394 20.7222C85.5394 16.9575 82.5286 14.0078 78.6851 14.0078L78.6857 14.0084ZM78.6851 24.5557C76.6328 24.5557 75.0862 22.9074 75.0862 20.7216C75.0862 18.527 76.5798 16.9345 78.638 16.9345C80.7021 16.9345 82.2605 18.5829 82.2605 20.7698C82.2605 22.9633 80.7562 24.5551 78.6851 24.5551V24.5557ZM93.7769 14.2695C93.8928 14.2695 93.9863 14.3636 93.9863 14.4788V16.9386C93.9863 16.9661 93.981 16.9933 93.9705 17.0187C93.9601 17.0441 93.9447 17.0672 93.9253 17.0866C93.9059 17.1061 93.8829 17.1215 93.8575 17.1321C93.8322 17.1426 93.805 17.148 93.7775 17.148H90.6285V23.0644C90.6285 23.9994 91.0389 24.4158 91.9575 24.4158C92.5419 24.4189 93.1184 24.2796 93.637 24.01C93.669 23.9941 93.7046 23.9867 93.7403 23.9883C93.7761 23.99 93.8108 24.0008 93.8413 24.0196C93.8717 24.0384 93.8968 24.0647 93.9143 24.096C93.9317 24.1272 93.9409 24.1624 93.941 24.1982V26.5398C93.941 26.6145 93.8998 26.6851 93.8351 26.7221C93.0324 27.1767 92.1809 27.3884 91.1536 27.3884C88.6291 27.3884 87.3489 26.0847 87.3489 23.5119V17.1486H85.9728C85.9454 17.1485 85.9183 17.143 85.893 17.1325C85.8677 17.1219 85.8447 17.1065 85.8254 17.087C85.8061 17.0676 85.7908 17.0445 85.7803 17.0192C85.7699 16.9938 85.7646 16.9667 85.7647 16.9392V14.4788C85.7647 14.3636 85.8576 14.2695 85.9728 14.2695H87.3489V11.0493C87.3489 10.934 87.443 10.8399 87.5594 10.8399H90.4209C90.5367 10.8399 90.6302 10.934 90.6302 11.0493V14.2695H93.7793H93.7769ZM109.64 14.2818C109.726 14.2818 109.804 14.3347 109.835 14.4171L113.179 23.1403L116.231 14.4218C116.245 14.3806 116.272 14.345 116.307 14.3197C116.343 14.2944 116.385 14.2808 116.429 14.2806H119.408C119.443 14.2806 119.476 14.2889 119.506 14.3049C119.537 14.3209 119.562 14.344 119.582 14.3723C119.601 14.4006 119.613 14.4331 119.616 14.4671C119.62 14.501 119.615 14.5353 119.602 14.567L114.637 27.3984C113.608 30.0464 112.439 31.0308 110.327 31.0308C109.196 31.0308 108.282 30.7967 107.269 30.2487C107.222 30.2235 107.187 30.1815 107.17 30.1312C107.154 30.0809 107.157 30.0261 107.179 29.9782L108.15 27.8494C108.161 27.8232 108.178 27.7997 108.2 27.7802C108.221 27.7608 108.246 27.7459 108.273 27.7365C108.301 27.7277 108.33 27.7246 108.358 27.7273C108.387 27.7301 108.415 27.7386 108.441 27.7524C108.983 28.0493 109.514 28.1993 110.019 28.1993C110.642 28.1993 111.099 27.9947 111.564 26.9632L107.471 17.1486H104.798V26.9662C104.798 27.082 104.704 27.1761 104.589 27.1761H101.727C101.699 27.1761 101.672 27.1707 101.647 27.1601C101.621 27.1495 101.598 27.1341 101.579 27.1146C101.559 27.0951 101.544 27.0719 101.533 27.0464C101.523 27.021 101.517 26.9937 101.517 26.9662V17.1486H100.143C100.087 17.1481 100.034 17.1259 99.9947 17.0866C99.9554 17.0473 99.9331 16.9942 99.9327 16.9386V14.4671C99.9327 14.3512 100.027 14.2571 100.142 14.2571H101.517V13.6514C101.517 10.837 102.914 9.34805 105.558 9.34805C106.644 9.34805 107.369 9.52152 107.937 9.68912C108.026 9.71676 108.085 9.79849 108.085 9.89023V12.3013C108.086 12.3346 108.078 12.3675 108.063 12.3974C108.048 12.4272 108.027 12.4529 108 12.4725C107.973 12.4921 107.941 12.505 107.908 12.5099C107.875 12.5149 107.842 12.5119 107.81 12.5012C107.273 12.3224 106.794 12.2036 106.198 12.2036C105.198 12.2036 104.751 12.7229 104.751 13.8866V14.2818H109.639H109.64ZM98.389 14.2695C98.5043 14.2695 98.5984 14.3636 98.5984 14.4788V26.9656C98.5984 27.0808 98.5043 27.1749 98.3884 27.1749H95.5264C95.4708 27.1749 95.4175 27.1529 95.3781 27.1136C95.3388 27.0744 95.3166 27.0211 95.3164 26.9656V14.4788C95.3164 14.3636 95.4105 14.2695 95.5258 14.2695H98.3878H98.389ZM96.9724 8.58416C97.5167 8.58416 98.0387 8.80039 98.4236 9.18527C98.8085 9.57015 99.0247 10.0922 99.0247 10.6365C99.0247 11.1808 98.8085 11.7028 98.4236 12.0877C98.0387 12.4726 97.5167 12.6888 96.9724 12.6888C96.4281 12.6888 95.9061 12.4726 95.5212 12.0877C95.1363 11.7028 94.9201 11.1808 94.9201 10.6365C94.9201 10.0922 95.1363 9.57015 95.5212 9.18527C95.9061 8.80039 96.4281 8.58416 96.9724 8.58416ZM122.046 18.2835C121.781 18.2845 121.519 18.2331 121.274 18.1323C121.029 18.0314 120.807 17.8831 120.619 17.6959C120.432 17.5086 120.284 17.2862 120.183 17.0414C120.082 16.7966 120.031 16.5342 120.032 16.2694C120.032 16.0036 120.084 15.7403 120.186 15.4947C120.288 15.2491 120.437 15.026 120.625 14.838C120.813 14.65 121.036 14.501 121.282 14.3993C121.527 14.2976 121.791 14.2453 122.056 14.2454C122.321 14.2442 122.583 14.2955 122.828 14.3962C123.073 14.4969 123.296 14.6451 123.483 14.8323C123.67 15.0194 123.818 15.2417 123.919 15.4865C124.02 15.7312 124.072 15.9935 124.071 16.2583C124.071 16.5242 124.018 16.7876 123.917 17.0333C123.815 17.2791 123.666 17.5024 123.478 17.6905C123.29 17.8786 123.067 18.0279 122.821 18.1297C122.575 18.2316 122.312 18.284 122.046 18.2841V18.2835ZM122.056 14.4459C121.025 14.4459 120.244 15.2662 120.244 16.27C120.244 17.2738 121.019 18.083 122.046 18.083C123.077 18.083 123.859 17.2633 123.859 16.2589C123.859 15.2551 123.083 14.4459 122.056 14.4459ZM122.503 16.4659L123.073 17.2633H122.592L122.081 16.5317H121.64V17.2633H121.237V15.1492H122.18C122.67 15.1492 122.994 15.4009 122.994 15.8237C122.994 16.1707 122.794 16.3824 122.503 16.4647L122.503 16.4659ZM122.162 15.512H121.638V16.1801H122.162C122.424 16.1801 122.579 16.0519 122.579 15.8449C122.579 15.6273 122.424 15.5114 122.162 15.5114V15.512ZM19.1369 0.0703125C8.91304 0.0703125 0.625 8.47361 0.625 18.6981C0.624412 28.3052 7.94098 36.0604 17.3063 37.2365H20.9676C30.3329 36.0604 37.6495 28.3052 37.6495 18.6975C37.6495 8.47361 29.3609 0.0703125 19.1375 0.0703125H19.1369ZM27.6267 26.7715C27.5478 26.901 27.4442 27.0137 27.3217 27.1031C27.1993 27.1925 27.0603 27.2568 26.913 27.2924C26.7656 27.3281 26.6126 27.3342 26.4628 27.3106C26.3131 27.287 26.1694 27.2341 26.0401 27.1549C21.6926 24.4981 16.2214 23.8983 9.77748 25.3702C9.62982 25.4041 9.47691 25.4086 9.32751 25.3834C9.17811 25.3582 9.03515 25.3038 8.9068 25.2233C8.77844 25.1428 8.66722 25.0378 8.5795 24.9142C8.49177 24.7907 8.42927 24.6511 8.39555 24.5034C8.36162 24.3556 8.35716 24.2027 8.38244 24.0532C8.40772 23.9037 8.46223 23.7607 8.54286 23.6324C8.62348 23.504 8.72863 23.3928 8.8523 23.3051C8.97596 23.2175 9.1157 23.155 9.26352 23.1215C16.3155 21.5102 22.3642 22.2041 27.2439 25.1855C27.5047 25.3454 27.6915 25.6023 27.7632 25.8997C27.8348 26.1972 27.7855 26.5109 27.6261 26.7721L27.6267 26.7715ZM29.8919 21.7307C29.6916 22.0568 29.37 22.29 28.9979 22.3791C28.6257 22.4682 28.2334 22.4059 27.9072 22.2059C22.9323 19.148 15.3464 18.2618 9.45993 20.0489C9.09358 20.1594 8.69834 20.1203 8.36075 19.9401C8.02317 19.7599 7.77073 19.4533 7.65872 19.0874C7.42938 18.3229 7.85866 17.5191 8.62136 17.288C15.3458 15.2474 23.7038 16.2353 29.4179 19.746C29.7439 19.9464 29.9769 20.268 30.0659 20.6401C30.1549 21.0123 30.0925 21.4045 29.8925 21.7307H29.8919ZM30.0871 16.4817C24.1195 12.9381 14.2767 12.6123 8.5802 14.3412C8.1407 14.4744 7.66629 14.4276 7.26134 14.211C6.85638 13.9944 6.55405 13.6258 6.42086 13.1863C6.28767 12.7468 6.33453 12.2724 6.55112 11.8674C6.76771 11.4625 7.1363 11.1601 7.5758 11.0269C14.115 9.04226 24.9857 9.42567 31.8554 13.5026C32.051 13.6186 32.2218 13.772 32.3581 13.9541C32.4945 14.1361 32.5936 14.3432 32.6498 14.5636C32.7061 14.7839 32.7183 15.0132 32.686 15.2383C32.6536 15.4634 32.5772 15.6799 32.4611 15.8754C32.3451 16.0712 32.1917 16.2422 32.0097 16.3786C31.8276 16.515 31.6204 16.6141 31.4 16.6704C31.1795 16.7267 30.9502 16.7389 30.725 16.7064C30.4998 16.6739 30.2833 16.5974 30.0877 16.4811L30.0871 16.4817Z" fill="#4B5563"/>
</svg>
