<svg width="72" height="32" viewBox="0 0 72 32" fill="none" xmlns="http://www.w3.org/2000/svg">
<path fill-rule="evenodd" clip-rule="evenodd" d="M5.16361 12.6475C5.16361 11.8405 5.804 11.5301 6.84812 11.5301C8.35165 11.5301 10.2311 12.0061 11.7346 12.8546V7.99129C10.1058 7.30842 8.47694 7.03938 6.84812 7.03938C2.83871 7.03938 0.179688 9.23305 0.179688 12.8961C0.179688 18.6075 7.66949 17.6971 7.66949 20.1598C7.66949 21.1115 6.88988 21.422 5.77616 21.422C4.14733 21.422 2.0591 20.7183 0.402433 19.7665V24.6917C2.22616 25.5195 4.07773 25.8712 5.77616 25.8712C9.88302 25.8712 12.7091 23.7399 12.7091 20.0355C12.6813 13.8686 5.16361 14.9653 5.16361 12.6475ZM18.5005 2.90057L13.6836 3.97661L13.6697 20.5528C13.6697 23.6157 15.8554 25.8712 18.7789 25.8712C20.3938 25.8712 21.5771 25.5608 22.2315 25.1884V20.9873C21.605 21.2565 18.4865 22.2083 18.4865 19.1455V11.7991H22.2315V7.39122H18.4865L18.5005 2.90057ZM28.3569 8.92253L28.0507 7.39122H23.7907V25.4987H28.7189V13.227C29.8744 11.6336 31.8513 11.9234 32.4638 12.1509V7.39122C31.8373 7.14284 29.5264 6.68754 28.3569 8.92253ZM33.6611 7.39122H38.6171V25.4987H33.6611V7.39122ZM33.6611 5.81843L38.6171 4.70094V0.5L33.6611 1.59684V5.81829V5.81843ZM48.9191 7.03938C46.984 7.03938 45.7311 7.99129 45.0489 8.65363L44.7844 7.37056H40.4548V31.5L45.383 30.4033L45.3969 24.5468C46.1069 25.0848 47.1511 25.8505 48.8913 25.8505C52.4273 25.8505 55.6432 22.8706 55.6432 16.3106C55.6154 10.3091 52.3716 7.03938 48.9191 7.03938ZM47.7358 21.2978C46.5664 21.2978 45.8703 20.8633 45.3969 20.3252L45.383 12.6475C45.8981 12.0475 46.6081 11.6336 47.7358 11.6336C49.5177 11.6336 50.7707 13.7443 50.7707 16.4553C50.7707 19.2284 49.5456 21.2978 47.7358 21.2978ZM71.1797 16.5174C71.1797 11.2197 68.7295 7.03938 64.0658 7.03938C59.3603 7.03938 56.5203 11.2198 56.5203 16.4761C56.5203 22.705 59.8754 25.8505 64.6922 25.8505C67.0311 25.8505 68.813 25.2918 70.1495 24.5054V20.3665C68.813 21.0702 67.2677 21.5049 65.3187 21.5049C63.4115 21.5049 61.713 20.8012 61.4903 18.3592H71.1379C71.1379 18.0901 71.1797 17.014 71.1797 16.5174ZM61.4346 14.5515C61.4346 12.2131 62.7989 11.2404 64.0379 11.2404C65.2491 11.2404 66.5299 12.2131 66.5299 14.5515H61.4346Z" fill="#6B7280"/>
</svg>
