<svg width="49" height="136" viewBox="0 0 49 136" fill="none" xmlns="http://www.w3.org/2000/svg">
<path d="M19.725 1.55608L2.79317 15.1297C0.887419 16.6461 -0.334254 19.8499 0.0811018 22.2467L3.33061 41.7145C3.917 45.1874 7.23986 48 10.7582 48H38.1228C41.6167 48 44.964 45.163 45.5503 41.7145L48.7999 22.2467C49.1908 19.8499 47.9691 16.6461 46.0878 15.1297L29.156 1.58056C26.5417 -0.522744 22.3149 -0.522768 19.725 1.55608Z" fill="#EBEBFF"/>
<path d="M26.5476 33V19.6H24.5676C23.8876 20.46 22.9476 20.8 21.8476 20.8V22.44H24.2876V33H26.5476Z" fill="#6666FF"/>
<line x1="25.4375" y1="64" x2="25.4375" y2="136" stroke="#6666FF" stroke-width="2"/>
</svg>
