<svg width="49" height="136" viewBox="0 0 49 136" fill="none" xmlns="http://www.w3.org/2000/svg">
<path d="M19.725 1.55608L2.79317 15.1297C0.887419 16.6461 -0.334254 19.8499 0.0811018 22.2467L3.33061 41.7145C3.917 45.1874 7.23986 48 10.7582 48H38.1228C41.6167 48 44.964 45.163 45.5503 41.7145L48.7999 22.2467C49.1908 19.8499 47.9691 16.6461 46.0878 15.1297L29.156 1.58056C26.5417 -0.522744 22.3149 -0.522768 19.725 1.55608Z" fill="#EBEBFF"/>
<path d="M24.7277 33.2C27.6677 33.2 29.6677 31.78 29.6677 29.54C29.6677 27.74 28.6277 26.28 26.0877 26.12C27.8477 25.94 29.1277 24.7 29.1277 23.06C29.1277 21.24 27.7877 19.4 24.6877 19.4C22.1077 19.4 20.2877 20.86 19.6877 22.68L21.4877 24.22C21.7677 22.48 22.9877 21.56 24.6077 21.56C26.1077 21.56 26.8077 22.44 26.8077 23.56C26.8077 24.78 26.0077 25.36 24.5677 25.36H22.3677V27.22H24.4877C26.1477 27.22 27.2677 27.78 27.2677 29.16C27.2677 30.34 26.3877 31.06 24.8277 31.06C22.5677 31.06 21.6477 29.84 21.2477 27.94L19.4477 29.54C19.9477 31.54 21.7677 33.2 24.7277 33.2Z" fill="#6666FF"/>
<line x1="25.4375" y1="64" x2="25.4375" y2="136" stroke="#6666FF" stroke-width="2"/>
</svg>
