<svg width="97" height="20" viewBox="0 0 97 20" fill="none" xmlns="http://www.w3.org/2000/svg">
<path fill-rule="evenodd" clip-rule="evenodd" d="M15.7239 0.54242V11.4985C15.7239 15.1572 14.0988 16.6764 10.2835 16.6764C6.46954 16.6764 4.84304 15.1572 4.84304 11.4985V0.0625H1.16969C0.847761 0.0625 0.6875 0.222688 0.6875 0.54242V11.6783C0.6875 17.7966 4.60264 19.9358 10.2835 19.9358C15.9657 19.9358 19.8794 17.7966 19.8794 11.6783V0.0625H16.2061C15.8856 0.0625 15.7239 0.222688 15.7239 0.54242Z" fill="#6B7280"/>
<path fill-rule="evenodd" clip-rule="evenodd" d="M68.9837 3.24149C69.2845 3.24149 69.4251 3.14166 69.5249 2.92144L70.5891 0.302292C70.6495 0.142762 70.5891 0.0625 70.4288 0.0625H55.6328C54.2481 0.0625 53.7266 0.482388 53.7266 1.42198V18.436C53.7266 19.2359 54.1272 19.5957 55.1914 19.5957H68.9837C69.2845 19.5957 69.4251 19.4956 69.5249 19.2761L70.5891 16.6566C70.6495 16.4967 70.5891 16.4167 70.4288 16.4167H57.802V12.9579C57.802 11.7582 58.4641 11.2183 60.2495 11.2183H65.7307C66.0329 11.2183 66.1721 11.1189 66.2733 10.8989L67.2967 8.37962C67.3572 8.21946 67.2967 8.1398 67.1365 8.1398H57.802V3.24149H68.9837Z" fill="#6B7280"/>
<path fill-rule="evenodd" clip-rule="evenodd" d="M39.0801 16.4569H31.8304V12.878C31.8304 11.6783 32.4925 11.1387 34.2807 11.1387H39.0801C41.3884 11.1387 42.0309 12.0182 42.0309 13.8179C42.0309 15.6172 41.3884 16.4569 39.0801 16.4569ZM31.8304 3.20136H38.3168C40.4859 3.20136 41.0876 4.0147 41.0876 5.70044C41.0876 7.38646 40.4859 8.19986 38.3168 8.19986H31.8304V3.20136ZM42.9348 9.29928C44.5402 8.45956 45.2023 6.88022 45.2023 5.02088C45.2023 0.702272 41.6696 0.0625 38.0159 0.0625H29.6641C28.2794 0.0625 27.7578 0.482388 27.7578 1.42198V18.436C27.7578 19.2359 28.1585 19.5957 29.2227 19.5957H39.5018C43.3762 19.5957 46.147 18.0963 46.147 14.1976C46.147 11.8585 45.1433 9.87902 42.9348 9.29928Z" fill="#6B7280"/>
<path fill-rule="evenodd" clip-rule="evenodd" d="M88.5646 9.11924H81.7395V3.20169H88.5646C91.1147 3.20169 91.677 4.18109 91.677 6.16048C91.677 8.15968 91.1147 9.11924 88.5646 9.11924ZM96.2332 19.2558L91.8373 11.7384C94.0261 11.1788 95.7918 9.73944 95.7918 6.08054C95.7918 1.34238 92.841 0.0625 87.9629 0.0625H79.5717C78.1856 0.0625 77.6641 0.482388 77.6641 1.42198V19.1159C77.6641 19.4356 77.8243 19.5957 78.1463 19.5957H81.7395V13.8979C81.7395 12.6982 82.4016 12.1582 84.1884 12.1582H87.8027L91.7769 19.2761C91.8978 19.4757 92.0187 19.5957 92.3195 19.5957H96.0533C96.3148 19.5957 96.3148 19.3755 96.2332 19.2558Z" fill="#6B7280"/>
</svg>
